<?xml version='1.0' encoding='utf-8'?>
<svg xmlns="http://www.w3.org/2000/svg" version="1.1" x="0px" y="0px" width="928.05px" height="638.57px" viewBox="0 0 928.05 638.57" enable-background="new 0 0 928.05 638.57"> <g id="Warstwa_15"> <rect fill="#C9D8D5" width="928.05" height="638.57"/> <path fill="#B6C7C2" d="M469.14,436.23c-10.95-1.21-22.41,2.38-33.24,3.1c-11,0.74-22.18-0.31-33.23,0.32 c-21.1,1.2-42.71,1.66-63.53,3.14c-12.47,0.89-21.38,3.12-32.82,7.31c-1.31,11.21,17.02,9.67,21.7,16.64 c-66.55,6.41-133.98,3.08-200.71,6.95c-7.12,0.41-68.98,5.71-45.26,19.56c12.61,7.36,4.14,5.52,9.29,18.36 c4.94,12.31,16.81,25.08,35.36,26.03c37.51,1.92,51.08-8.62,92.36-8.88c23.98,8.87,61.39-0.69,55.25,1.09 c1.52,19.09,83.71,15.8,95.74,15.79c38.29-0.05,76.3,1.34,114.44,3.38c7.67,0.41,43.82,3.73,33.79-13.41 c1.81,3.09,51.34-2.29,57.86-2.34c19.02-0.16,38.04,0.17,57.05,0.25c43.39,0.19,86.84-3.25,130.18-2.39 c17.74,0.35,73.51,7.46,73.51-22.23c0-22.91-59.01-17.7-71.7-17.02c-14.93,0.79-28.1-7.47-21.93-13.47 c-7.96-10.33-35.42-10.8-46.5-12.25c-23.29-3.03-46.66-4.93-70.07-4.92c-24.42,0.01-48.43-3.58-72.87-2.18 c-13.49,0.77-28.19,2.91-41.49-0.2c0.75-17.79,42.85-11.76,51.74-20.05c-14.52-6.53-30.96-4.84-46.86-4.85 c-15.3,0-39.87-4.57-53.04,3.42"/> <path fill="#6D9297" d="M448.21,478.63c-3.74-0.42-7.66,0.81-11.36,1.06c-3.76,0.25-7.58-0.11-11.36,0.11 c-7.21,0.41-14.6,0.57-21.71,1.07c-4.26,0.3-7.31,1.07-11.22,2.5c-0.45,3.83,5.82,3.31,7.42,5.69 c-22.74,2.19-45.79,1.05-68.59,2.38c-2.43,0.14-23.57,1.95-15.47,6.68c4.31,2.51,10.84,2.36,15.54,2.82 c6.32,0.62,12.66,0.96,19,1.28c12.82,0.66,25.58,1.08,38.23,3.74c0.01,2.99-4.97,4.06-7.07,4.66c0.52,6.53,28.61,5.4,32.72,5.4 c13.09-0.02,26.08,0.46,39.11,1.15c2.62,0.14,14.97,1.28,11.55-4.58c26.18-2.1,52.74,3.44,78.91,0.16 c5.91-0.74,11.98-1.57,17.8-2.96c2.91-0.7,14.68-2.15,14.68-7.18c0-7.83-22.68-5.19-27.02-4.96c-5.1,0.27-10.3,6.6-15.41,6.63 c-2.45,0.01-10.06,0.3-6.64-3.24c1.63-1.68,5.61-2,7.65-3.01c2.55-1.25,4.79-2.93,6.9-4.98c-2.72-3.53-12.1-3.69-15.89-4.19 c-7.96-1.04-15.94-1.69-23.95-1.68c-8.35,0-16.55-1.22-24.9-0.75c-4.61,0.26-9.63,0.99-14.18-0.07c0.26-6.08,14.65-4.02,17.68-6.85 c-4.96-2.23-10.58-1.66-16.01-1.66c-5.23,0-13.62-1.56-18.13,1.17"/> </g> <g id="Warstwa_3"> <path fill="#878787" d="M640.23,486.68c-4.68,5.73-12.38,15.61-23.5,14.04c-1.92-0.27-3.38-0.82-4.45-1.56 c-7.6,1.34-11.23-1.22-12.27-4.58c-17.99-6.85,1.28-28.68,23.54-25.59c3.47-5.92,7.47-14.6,8.89-22.14 c3.18-16.82,0.56-34.25-1.14-43.89v-0.01l-0.01-0.01c1.52-4.01,9.15,0.43,16.73,3.63C682.51,421.15,640.23,486.68,640.23,486.68z"/> <path fill="#B2B2B2" d="M803.51,474.98c37.39-31.76,17.45-137.52-52.62-156.15c-18.1-4.81-37.8-9.2-37.8-9.2 c-5.02-10.15-1.02-27.76,0.79-39.48c2.29-14.8,2.93-27.15-6.54-38.95l-18.03-20.05c-13.19-11.94-29.17-13.01-45.92-9.56 c-17.79,3.66-23.22,13.49-35.3,25.18c-6.59,6.38-19.74,7.97-23.12,11.67c-3.51,3.83-0.01,17,2.93,24.55 c2.86,7.33,11.43,17.65,17.9,21.45c13.08,7.68,24.19,11.66,25.81,27.86c0.78,7.71,1.58,16.44,0.98,20.01 c-0.3,1.78-16.14,33.56-6.43,59.25c1.55,4.09,3.28,7.87,5.12,11.38c7.96,15.14,17.96,25.33,23.71,34.84 C655,437.78,730.19,485.75,803.51,474.98z"/> <g> <path fill="#B2B2B2" d="M797.8,484.63c-5.29,0-1.96-4.25-2.23-9.59c-0.28-5.52,5.69-10.12,11.21-10.39 c17.79-0.89,27.42-16.11,31.57-25.1c10.76-23.29,11.13-62.93-13.46-94.96c-21.1-27.47-29.17-57.47-22.14-82.31 c4.03-14.24,12.97-24.93,24.52-29.34c5.16-1.97,10.94,0.62,12.91,5.78c1.97,5.16-0.62,10.94-5.78,12.91 c-5.59,2.13-10.11,8-12.4,16.09c-5.21,18.42,1.8,42.61,18.75,64.68c29.82,38.83,29.4,86,15.76,115.53 c-10.29,22.28-28.05,35.65-48.72,36.69C807.61,484.63,797.96,484.63,797.8,484.63z"/> </g> <path fill="#B2B2B2" d="M784.58,437.78c14.99-0.2,34.21,30.91,7.2,52.71c-5.92,4.78-19.54,8.18-32.58,8.98 c-26.58,1.62-50.62-2.48-63.45-16.26c-23.29-25.01-23.88-66.07,1.61-85.52c41.53-31.69,80.79,7.35,80.79,7.35"/> <path fill="#B2B2B2" d="M799.07,505.65c-5.77,4.6-56.68,9.81-67.94,9.81c-15.34,0-19.95,2.93-31.08,1.36 c-2.07-0.29-3.6-0.91-4.68-1.73c-7.58,1.34-11.16-1.17-12.17-4.49c-18.3-6.78,1.33-28.61,23.68-25.51c0,0,66.85,5.22,74.5,8.69 C781.38,493.78,807.28,499.1,799.07,505.65z"/> <path fill="#B2B2B2" d="M600.2,494.66c-0.06-0.02-0.13-0.05-0.19-0.08"/> <path fill="#B2B2B2" d="M643.71,475.03c2.02-0.12,4.1-0.05,6.2,0.24"/> <path fill="#B2B2B2" d="M638.4,505.28c-0.14,0.02-0.28,0.05-0.42,0.06"/> <path fill="#B2B2B2" d="M626.23,500.79c-1.33-4.4,1.88-10.22,6.29-10.3"/> <path fill="#B2B2B2" d="M680.07,204.57c10.48-2.7,7.19-24.19,3.49-22.01s-25.28,17.5-25.28,17.5S669.12,207.39,680.07,204.57z"/> <path fill="#B2B2B2" d="M693.08,221.16c17.22-3.22,33.18-26.08,28.99-23.32c-10.24,6.73-40.54,16.35-40.54,16.35 s7.3,7.59,11.47,7.47"/> <path fill="#B2B2B2" d="M690.32,466.93c-4.7,10.51-16.76,41.67-47.24,40.08c-2.35-0.12-4.01-0.74-5.1-1.67 c-7.3,1.19-10.76-1.29-11.75-4.55c-16.58-6.14-2.03-24.64,17.48-25.76c1.46-2.77,8.56-16.59,9.86-23.52 c0.87-4.59,1.3-9.22,1.43-13.73c0.62-19.24-4.18-36.23-3.71-37.65h0.91C652.2,400.13,697.73,450.35,690.32,466.93z"/> <path fill="#B2B2B2" d="M637.98,505.34c-4.15-3.45-0.27-11.1,4.88-11.79"/> <path fill="#B2B2B2" d="M643.71,475.03c-0.16,0.3-0.25,0.47-0.26,0.49"/> <path fill="#E0CADD" d="M699.4,237.4c0,0,24.87-15.14,23.22-38.9l-0.56-0.65c-3.5,2.03-11.77,20.1-28.99,23.32 c0,0-0.06,1.28,0.07,3.14c0.04,0.54,0.86,1.29,5.52-0.09c0.6-0.18-5.2,2.95-5.09,3.53c0.17,0.93,0.4,1.88,0.7,2.83 c0.13,0.4,4.98-2.83,5.13-2.44c0.19,0.49-4.31,4.59-4.07,5.05C696.26,234.97,697.57,236.51,699.4,237.4z"/> <path opacity="0.2" fill="#1D1D1B" d="M623.56,293.72c-0.81-0.17,13.74,20.61,54.71,12.54c0,0-34.91,12.39-46.64,6.04 C631.62,312.3,626.88,294.44,623.56,293.72z"/> <path opacity="0.2" fill="#FFFFFF" d="M593.05,234.43c0,0,6.63-3.45,7.15,11.86c0,0,34.24-0.96,43.51,22.48 c0,0,24.36,10.05,47.43-2.87c0,0-3.49,11.48-18.43,13.87c0,0,18.12,3.33,27.37-6.25c0,0-34.81,34.66-74.68,22.61 s-16.82-10.7-22.18-13.48s-16.23-20.58-17.68-26.8s-0.55-17.42-0.55-17.42L593.05,234.43z"/> <path opacity="0.2" fill="#FFFFFF" d="M668.81,201c0,0,13.71-9.77,15.34-17.01s-8.61,3.95-8.61,3.95l-17.27,12.12L668.81,201z"/> <path opacity="0.2" fill="#FFFFFF" d="M597.69,234.1c0,0,27.03-24.94,32.21-27.49s15.37-6.62,23.14-6.47s19.33,0.26,26.16,4.44 s10.44,6.92,10.44,6.92l-8.11,2.7c0,0-10.04-3.1-33.84-2.77C634.1,211.61,608.4,229.41,597.69,234.1z"/> <path fill="#575756" d="M593.05,234.43c0,0,4.75,12.7-2.38,15c-3.53,1.14-6.5,0.91-6.7-0.5s-2.01-9,1.02-10.5 S593.05,234.43,593.05,234.43z"/> <path fill="#575756" d="M588.17,263.13c2.93-0.2,5.62,0.77,8.59,0.69c2.97-0.38,4.78-2.26,7.23-3.72 C603.49,266.84,591.72,267.83,588.17,263.13z"/> <path opacity="0.2" fill="#1D1D1B" d="M641.37,231.19c0,0,13.9,8.23,19.47,9.38c5.57,1.16,26.22-0.02,26.22-0.02 s-51.06,17.2-63.97,2.02c0,0,5.73,1.12,11.02-0.28C639.4,240.9,642.61,232.48,641.37,231.19z"/> <ellipse transform="matrix(0.9334 0.3589 -0.3589 0.9334 126.0472 -210.0792)" fill="#1D1D1B" cx="628.82" cy="234.43" rx="4.71" ry="8.19"/> <path opacity="0.2" fill="#FFFFFF" d="M632.61,332.31c0,0,0.7,13.61,0,16.51s17.65-20.42,40.1-23.96c0,0-44.57,29.35-29.25,75.27 s6.46,24.41,6.46,24.41s-16.04-13.21-22.67-30.3s-5.17-40.75-1.31-46.77S632.61,332.31,632.61,332.31z"/> <ellipse transform="matrix(0.9699 0.2436 -0.2436 0.9699 75.0709 -146.066)" fill="#FFFFFF" cx="628.18" cy="230.53" rx="1.38" ry="2.24"/> <ellipse transform="matrix(0.97 0.2432 -0.2432 0.97 75.8345 -146.1637)" fill="#FFFFFF" cx="629.79" cy="234" rx="1.06" ry="1.72"/> <path fill="#1D1D1B" d="M629.88,222.32c-0.27,2.88,1.9,4.75,3.66,6.67C631.01,228.3,627.8,225,629.88,222.32z"/> <path fill="#1D1D1B" d="M625.87,242.08c-1.54-0.34-3.12,0.22-4.67,0C622.35,241.01,624.97,240.36,625.87,242.08z"/> <path fill="#1D1D1B" d="M604.82,251.29c6.11,0,12.1-0.12,18.21,0.48c9.74,0.97,19.34,3,28.64,6.04 c15.87,5.19,29.93,13.8,42.13,25.13c-12.29-11.18-26.4-19.63-42.29-24.64c-9.28-2.93-18.86-4.86-28.56-5.72 c-4.2-0.37-8.41-0.57-12.63-0.52c-1.6,0.02-3.21,0.06-4.81,0.18C604.74,252.3,603.82,251.29,604.82,251.29z"/> <path fill="#1D1D1B" d="M605.13,253.84c13.95,2.2,27.82,5.91,41.06,10.79c13.76,5.08,27.81,11.94,36.83,23.89 c-9.56-12.37-24.49-19.08-38.93-24.08c-8.43-2.92-17.08-5.24-25.8-7.13c-3.59-0.78-7.19-1.48-10.81-2.09 c-0.79-0.13-1.58-0.26-2.37-0.38C604.44,254.75,604.36,253.84,605.13,253.84z"/> <path fill="#1D1D1B" d="M605.42,256.76c23.83,6.89,48.53,18.14,65.69,36.43c-9.63-10-20.98-17.13-33.43-23.17 c-6.34-3.08-12.92-5.73-19.56-8.1c-3.26-1.17-6.54-2.3-9.86-3.29C608.03,258.57,603.14,257.21,605.42,256.76z"/> <path fill="#706F6F" d="M718.09,311.52c0,0,8.79,27.04-17.46,37.29c0,0,30.74-0.7,35.89-32.93L718.09,311.52z"/> <path fill="#706F6F" d="M760.63,322.09c0,0-14.69,27.54-32.68,33.97c0,0,34.71-3,50.13-22.71L760.63,322.09z"/> <path fill="#706F6F" d="M789.75,341.4c0,0-10.2,20.94-36.76,21.38c0,0,37.81,6.36,50.19-3.67L789.75,341.4z"/> <path opacity="0.2" fill="#FFFFFF" d="M711.29,309.64c0,0,61.35,3.27,89.39,45.81s23.97,85.15,14.88,101.83 c0,0,3.11-43.54-8.39-66.72C784.2,344.29,747.22,318.53,711.29,309.64z"/> <path fill="#706F6F" d="M800.68,275.21c0,0,5.25,7.58,18.96,4.15l0.86,11.14c0,0-12.27,5.57-18.35,0S800.68,275.21,800.68,275.21z"/> <path fill="#706F6F" d="M805.94,311.52c0,0,11.1,5.8,18.83-7.61l6.47,11.97c0,0-5.89,10.33-20.74,8.98L805.94,311.52z"/> <path fill="#706F6F" d="M838.28,329.07c0,0-0.95,11.34-17.78,12.1c0,0,8.83,6.73,8.89,9.78c0,0,12.76-3.07,14.84-10.94 L838.28,329.07z"/> <path fill="#EDEDED" d="M809.76,247.11c0,0,11.19-17.65,22.61-14.79s9.67,12.83,7.39,14.79s-6.8,4.59-10.55,7.22 S826.9,241.67,809.76,247.11z"/> <path fill="#706F6F" d="M655.07,445.65c0,0,9.9-3.82,16.23,7.95c0,0-11.5-2.6-18.23,0L655.07,445.65z"/> <path fill="#706F6F" d="M649.33,460.84c0,0,10.94-4.08,19.49,4.78c0,0-11.87-0.94-21.15,2.77L649.33,460.84z"/> <path fill="#706F6F" d="M633.89,436.36c0,0,8.7-2.94,13.26,7.11s0,0,0,0s-3.86-3.34-13.04,0.84L633.89,436.36z"/> <path fill="#706F6F" d="M631.58,451.12c0,0,3.72-5.85,12.13,2.48c0,0-10.01-0.61-15.03,5.12L631.58,451.12z"/> <path fill="#706F6F" d="M693.8,399.92c0,0,0.33,22.67,25.57,21.42c0,0-19.59,7.91-35.05-8.81s0,0,0,0L693.8,399.92"/> <path fill="#706F6F" d="M678.26,433.44c0,0,14.41,9.58,34.73,0c0,0-17.31,20.59-34.07,14.5s0,0,0,0L678.26,433.44"/> </g> <g id="Warstwa_5"> <path opacity="0.2" fill="#1D1D1B" d="M688.42,473.68c0,0-13.96,24.08-18.91,26.12s-25.66,8.36-28.13,7.27s-4.23-1.93-4.23-1.93 s-7.09,0.31-9.52-1.29s-2.65-4.04-2.65-4.04s-6.16-1.16-5.97-6.97c0,0,2.13,5.52,6.92,2c0,0,1.48,10.19,10.52,4.97 c0,0,1.18,4.28,12.55,1.82s20.63-14.6,25.85-20.35c5.71-6.29,1.14-28.39,1.14-33.56c0-16.3,3.96-23.18,3.96-23.18 S674.41,456.41,688.42,473.68z"/> <path opacity="0.2" fill="#1D1D1B" d="M636.54,412.83c0,0,8.85,11.34,10.27,23.13s-0.44,24.16-3.19,29.66s-5.22,6.48-5.22,6.48 s-16.25,2.45-20.52,8.17s-4.95,9.42-4.95,9.42s-9.68,9.16-12.92,2.48c0,0-8.72-3.7-6.12-9.99c0,0-4.16,8.06,5.98,12.32 c0,0,1.93,5.53,8.39,4.95s3.78-0.99,3.78-0.99s3.88,3.79,7.22,3.22s4.88-1.45,4.88-1.45s-1.95-1.32-3.6-3.48s0.8-12.88,4.93-15.27 s16.09-6.14,17.63-6.2s2.47-0.25,2.47-0.25s16.91-21.2,10.85-36.37C656.43,438.66,651.26,425.06,636.54,412.83z"/> <path fill="#1D1D1B" d="M715.54,386.9c-0.72-2.78-3.18-5.27-5.53-6.79c-2.99-1.93-6.15-3.19-9.38-4.65 c3.54,0.55,6.88,1.77,9.86,3.79C712.9,380.88,715.57,383.81,715.54,386.9z"/> <path fill="#1D1D1B" d="M713,372.07c1.99,1.89,3.61,4.31,4.82,6.76c0.7,1.45,1.31,3,1.5,4.61c0.09,0.73,0.09,1.47-0.11,2.19 c-0.04,0.14-0.48,1.34-0.63,1.28c0.99-2.58-0.7-5.71-1.83-7.97C715.59,376.6,714.27,374.35,713,372.07z"/> <path opacity="0.2" fill="#1D1D1B" d="M695.17,375.46c0,0,22.67,5.72,17.83,13.35c-3.2,5.03,3.14-2.33,10.21-2.75 c0,0-5.82-14.46-12.61-15.87c0,0,5.08,8.82,5.58,13.05C716.19,383.25,709.19,372.07,695.17,375.46z"/> <g opacity="0.2"> <path fill="#1D1D1B" d="M812.07,465.47c0,0,3.46-0.99-2.97-11.87c-5.47-9.25-20.69-15.23-20.69-15.23 c7.67,3.4,16.64,13.07,10.46,23.53c-11.46,19.37-71.62,16.57-86.03-16.68c-20.55-47.42,26.87-58.4,33.97-57.88 c1.15,0.08-16.34-2.03-20.19-1.79s-43.09,4.39-47.96,46.31c-3.25,27.97,8.2,44.55,21.63,54.42l-1.49-0.15 c0,0,2.35,10.19,21.17,14.1s60.19-1.72,59.42-0.43c-1.73,2.89-23.23,11.74-37.61,10.8s-23.88-0.62-28.89,0.09 c-4.79,0.67-11.12,6.09-18.92-1.52c-0.02,0.66-0.35,2.26-2.54,2.77c-2.59,0.6-9.28-3.14-7.04-8.5c0,0-7.84,3.59-8.42-2.57 c0.08,1.95,0.46,5.34,2.13,6.62c2.39,1.84,5.09,3.1,5.09,3.1s-0.94,2.25,3.52,3.94s7.26-0.27,8.65,0.55s3.19,2.22,6.32,2.19 s25.69-3.09,31.08-1.85s31.71-4.22,38.96-3.75s24.16-4,26.07-5.3s2.83-5,1.11-6.15s-8.46-3.54-10.32-4.59s-2.86-0.81-2.86-0.81 l-1.96-0.2c9.64-4.06,15.19-11.45,15.19-11.45s4.43,1.44,8.01,1.61s14.34-2.74,20.48-5.27c4.87-2.01,14.19-9.58,17.83-12.62 C830.52,478.44,812.07,465.47,812.07,465.47z"/> <path fill="#1D1D1B" d="M846.33,466.01c0.29-0.25,0.46-0.39,0.46-0.39C846.64,465.76,846.48,465.88,846.33,466.01z"/> <path fill="#1D1D1B" d="M845.28,466.9c0.35-0.28,0.71-0.58,1.05-0.89C846.08,466.23,845.72,466.53,845.28,466.9z"/> <path fill="#1D1D1B" d="M675.98,499.45c-0.03,0.53-0.03,1,0.01,1.43C675.96,500.02,675.98,499.45,675.98,499.45z"/> </g> <path fill="#706F6F" d="M678.26,203.56c0,0-28.93-9.75-48.36,3.05c0,0,17.27-6.49,30.48-2.04c0,0-10.02,1.02-17.12,5.43 c0,0,29.94-1.03,39.31,3.9c1.13,0.6,7.06-2.42,7.06-2.42S680.68,204.32,678.26,203.56z"/> <path fill="#706F6F" d="M707.35,231.72c0,0-6,5.32-15.11,8.69c0,0,13.44,2.91,19.05-2.69L707.35,231.72z"/> <path fill="#706F6F" d="M713.8,244.58c0,0-3.17,7.91-17.69,5.58c0,0,9.73,6.78,19.15,2.61L713.8,244.58z"/> <path fill="#706F6F" d="M715.11,260.1c0,0-5.88,6.26-17.31,1.01c0,0,8.49,10.19,16.22,6.95L715.11,260.1z"/> <path opacity="0.2" fill="#1D1D1B" d="M708.09,231.19c0,0,10.14,17.49,7.45,31.36s-4.49,41.45-2.45,47.07 c0,0-19.32-0.26-28.94,6.26c0,0,11.56-9.31,15.25-14.28s18.85-45.87,2.73-66.09L708.09,231.19z"/> </g> <g id="Warstwa_1"> <path fill="#575756" d="M805.92,466.24c-0.08,2.78-0.54,5.54-1.42,8.18c-1.04,3.13-2.58,6.05-4.47,8.72 c-0.74,1.03-1.53,2.02-2.36,2.98c-0.89,1.01-1.82,1.97-2.8,2.89c-2.18,2.05-4.49,3.81-7.19,5.13c-0.32,0.15-0.64,0.3-0.96,0.45 c-0.42,0.19-0.85,0.38-1.28,0.55c-2.09,0.88-4.24,1.6-6.41,2.22c-6.07,1.73-12.37,2.79-18.66,3.28c-12.72,1-25.87,0.66-38.34-2.2 c-9.25-2.12-18-5.87-25.05-12.11c-0.66-0.58-1.3-1.18-1.93-1.81c-0.58-0.58-1.15-1.18-1.7-1.8c-2.02-2.26-3.86-4.67-5.52-7.21 c-0.27-0.4-0.53-0.81-0.79-1.23c-4.3-6.88-7.3-14.6-8.88-22.53c-2.32-11.67-1.51-24.06,3.1-35.09c2.23-5.32,5.39-10.4,9.42-14.55 c2.54-2.64,5.33-4.88,8.33-6.99c9.67-6.79,21.29-10.81,33.15-10.63c11.39,0.17,22.45,4.1,32.13,9.93 c4.94,2.98,9.82,6.47,13.86,10.62c-3.02-2.87-6.52-5.31-10.01-7.54c-4.66-2.98-9.59-5.51-14.77-7.45 c-11.3-4.23-23.68-5.26-35.34-1.88c-5.33,1.54-10.22,3.95-14.91,6.89c-3.36,2.1-6.76,4.56-9.47,7.47 c-3.39,3.65-6.3,7.56-8.55,12.02c-2.65,5.26-4.27,11.03-5,16.87c-1.47,11.69,0.69,23.75,5.7,34.39c0.84,1.8,1.76,3.57,2.77,5.3 l0.48,0.79c2.7,4.52,5.99,8.73,9.87,12.26c0.56,0.51,1.13,1,1.71,1.48c1.75,1.44,3.61,2.73,5.59,3.87 c10.82,6.21,23.69,8.23,35.98,8.83c12.62,0.61,25.84,0.05,38.02-3.57c0.71-0.21,1.42-0.43,2.13-0.67c0.13-0.05,0.26-0.09,0.4-0.14 c1.96-0.67,3.89-1.47,5.71-2.46c2.57-1.4,4.81-3.4,6.85-5.47c0.08-0.09,0.17-0.17,0.25-0.26c0.8-0.82,1.56-1.68,2.27-2.58 c2.84-3.56,4.97-7.65,6.08-12.1c0.38-1.5,0.62-3.03,0.72-4.57c0.08-1.02,0.09-2.05,0.06-3.08c-0.32-8.63-4.47-17.25-11.4-22.37 c-2.62-1.94-5.45-3.06-8.71-3.29c10.09,0.31,17.47,9.98,20.12,18.96c0.62,2.12,1.01,4.31,1.16,6.51 C805.94,464.24,805.96,465.25,805.92,466.24z"/> <path fill="#575756" d="M643.63,475.04c3.21-7.78,6.67-15.55,8.63-23.76c1.48-8.29,1.54-17.21,1.14-25.7 c-0.22-4.73-0.64-9.45-1.15-14.15c-0.09-0.87-1.59-11.14-0.95-11.29c0.02,0,0.54,2.67,0.59,2.87c0.3,1.16,0.6,2.32,0.89,3.48 c0.71,2.84,1.38,5.71,1.88,8.6c1.05,6.11,1.73,12.21,1.86,18.41c0.13,6.03-0.57,11.93-1.55,17.86c-0.72,4.36-2.9,8.7-4.9,12.59 C648.1,467.73,646.02,471.49,643.63,475.04z"/> <path fill="#575756" d="M631.29,402.94c1.85,5.8,2.78,11.94,3.52,17.96c0.94,7.67,0.7,15.54-0.51,23.15 c-1.44,9.09-5.39,17.48-10.75,24.93c1.93-4.55,3.95-9.1,5.38-13.84c0.88-2.93,1.86-5.93,2.21-8.99c0.33-2.9,0.77-5.76,0.96-8.67 c0.28-4.33,0.41-8.63,0.37-12.96C632.4,417.35,631.94,410.08,631.29,402.94z"/> <path fill="#575756" d="M689.32,211.14c-3.72-3.01-7.56-5.56-12-7.42c-5.71-2.38-11.93-3.33-18.09-3.27 c-6.19,0.05-12.48,0.96-18.45,2.59c-5.95,1.63-11.36,4.47-16.06,8.48c-4.69,4.01-8.68,8.77-12.94,13.21 c-1.1,1.15-2.2,2.31-3.38,3.37c-2.16,1.93-4.68,3.38-7.31,4.58c-2.65,1.21-5.4,2.17-8.13,3.19c-1.34,0.5-2.69,1-4,1.6 c-1.1,0.51-2.73,1.19-3.31,2.35c-1.41,2.42-0.76,6.11-0.33,8.71c0.51,3.11,1.31,6.19,2.27,9.19c0.78,2.47,1.7,4.82,2.8,7.16 c1.8,3.87,4.64,7.39,7.44,10.56c1.85,2.1,3.84,4.1,6.05,5.83c2.27,1.77,4.83,3.13,7.33,4.54c5.18,2.92,10.57,5.82,14.73,10.15 c3.8,3.96,6.08,8.96,6.85,14.38c0.58,4.12,0.88,8.28,1.15,12.43c0.2,3.08,0.4,6.22,0.04,9.29c-0.19,1.6-1.07,3.18-1.67,4.65 c-2.41,5.94-4.45,12.05-5.92,18.29c-2.79,11.83-3.88,25.24,0.77,36.77c2.37,5.87,4.98,11.57,8.18,17.05 c2.97,5.08,6.34,9.93,9.81,14.68c3.42,4.68,6.79,9.36,9.85,14.29c-5.82-8.56-12.67-16.36-18.46-24.95 c-6.79-10.06-12.93-21.49-14.19-33.74c-1.67-16.26,3.06-32.2,8.92-47.02c0.32-0.81,0.15-2.07,0.16-2.92 c0.01-1.66-0.07-3.33-0.18-4.99c-0.22-3.27-0.53-6.54-0.87-9.8c-0.37-3.59-0.87-7.18-2.44-10.48c-2.59-5.43-7.33-9.08-12.36-12.12 c-5.21-3.15-10.67-5.72-15.35-9.67c-2.2-1.85-4.21-4.08-6.02-6.3c-1.82-2.24-3.61-4.58-5.03-7.09c-1.05-1.85-2.07-3.71-2.83-5.71 c-1.72-4.52-3.08-9.23-3.82-14.01c-0.45-2.91-0.77-6.14,0.11-9c0.9-2.93,3.59-4.3,6.26-5.39c5.53-2.25,11.54-3.67,16.48-7.17 c1.18-0.84,2.16-1.79,3.19-2.79c2.29-2.22,4.48-4.54,6.7-6.82c4.25-4.38,8.6-8.74,13.91-11.83c5.32-3.1,11.23-4.79,17.28-5.73 c8.17-1.28,16.83-1.5,24.85,0.77c3.79,1.07,7.41,2.57,10.78,4.63C684.72,207.22,687.03,209.13,689.32,211.14z"/> <path fill="#575756" d="M822.81,429.28c-0.61,10.97-3.01,22.56-8.4,32.34c-0.72,1.32-1.5,2.6-2.34,3.85 c-2.37,3.53-5.2,6.74-8.56,9.51c3.06-2.77,5.63-5.93,7.79-9.36c0.75-1.19,1.45-2.42,2.1-3.67c3.18-6.12,5.2-12.89,6.36-19.68 c2.17-12.71,1.66-25.8-0.74-38.44c-4.52-23.79-15.64-47.17-33.48-63.83c-9.03-8.43-19.52-14.69-31.21-18.66 c-5.06-1.72-10.37-2.81-15.54-4.13c-4.29-1.09-8.57-2.23-12.87-3.27c-2.82-0.68-5.63-1.36-8.45-2.05c-1.24-0.3-2.48-0.6-3.72-0.9 c-0.61-0.14-1.45-0.17-1.69-0.77c-1.09-2.79-1.86-5.47-2.2-8.46c-0.36-3.1-0.29-6.26-0.07-9.36c0.47-6.51,1.69-12.92,2.82-19.34 c1.47-8.37,2.86-16.81,1.77-25.31c-0.78-6.13-3.49-11.58-7.03-16.56c2.85,3.64,5.32,7.5,6.67,11.96c0.9,2.95,1.36,5.88,1.67,8.93 c0.44,4.43,0.03,9.11-0.47,13.51c-0.73,6.44-1.96,12.81-2.75,19.25c-0.52,4.25-0.84,8.52-0.75,12.81c0.05,1.97,0.23,4,0.64,5.93 c0.37,1.77,0.94,3.37,1.6,5.03c11.55,2.57,23.03,5.35,34.53,8.15c11.56,2.82,22.36,7.73,31.86,14.94 c9.33,7.08,17.2,16.02,23.48,25.89C817.22,378.61,824.2,404.37,822.81,429.28z"/> <path fill="#575756" d="M700.63,485.64c-1.22,0.17-2.43,0.39-3.65,0.69c-0.25,0.05-0.51,0.11-0.76,0.18 c-4.27,1.13-8.5,3.03-12.03,5.71c-3.14,2.39-6.55,5.67-7.06,9.8c-0.5,4.15,2.95,6.67,6.07,8.58c-3.87-0.98-7.78-3.24-8.29-7.6 c-0.58-4.85,2.8-9.35,6.33-12.28c3.92-3.25,8.77-5.38,13.81-6.2c1.28-0.21,2.58-0.33,3.87-0.36 C699.48,484.67,700.05,485.16,700.63,485.64z"/> <path fill="#575756" d="M689.49,500.3c-3.73,1.43-6.24,6.15-4.78,10.07c1.46,4.29,6.98,4.23,10.65,4.72 c-4.55,2.08-11.2,1.92-13.37-3.42C680.08,506.94,683.67,499.23,689.49,500.3z"/> <path fill="#575756" d="M800.45,506.42c-1.15,1.05-2.62,1.61-4.09,2.1c-2.91,0.95-5.94,1.58-8.95,2.17 c-6.2,1.2-12.47,2.1-18.74,2.91c-12.78,1.65-25.71,3.13-38.6,3.38c-6.37,0.13-12.6,0.97-18.93,1.56c-3.01,0.28-6.15,0.4-9.15-0.02 c-2.83-0.32-5.56-0.55-7.72-2.65c-4.73-4.56-0.23-12.05,5.56-12.5c-3.01,0.82-5.5,3.6-5.65,6.78c-0.15,3.52,3.16,4.71,6.07,5.18 c5.01,0.79,10.46,0.27,15.62-0.34c3.17-0.37,6.34-0.71,9.52-0.88c3.22-0.12,6.44-0.11,9.65-0.27c12.96-0.66,25.95-2.14,38.8-3.97 c4.94-0.7,9.89-1.47,14.78-2.49c2.39-0.49,4.79-1.02,7.09-1.81c1.17-0.4,2.54-0.87,3.25-1.96c0.8-1.24-1.35-2.52-2.14-3.1 c-1.92-1.4-4.12-2.41-6.3-3.35c-1.67-0.72-3.36-1.4-5.08-2.02c-1.02-0.37-2.05-0.72-3.09-1.04c0.13-0.05,0.26-0.09,0.4-0.14 c1.32,0.19,2.65,0.39,3.97,0.63c3.02,0.55,6.01,1.27,8.9,2.34c2.39,0.88,4.92,2.01,6.13,4.39 C802.69,503.15,801.87,505.12,800.45,506.42z"/> <path fill="#575756" d="M623.56,468.99c-3.62,0.18-7.13,0.49-10.65,1.42c-4.28,1.13-8.5,3.03-12.04,5.71 c-3.13,2.39-6.55,5.67-7.06,9.8c-0.5,4.15,2.95,6.67,6.07,8.58c-3.87-0.98-7.77-3.24-8.29-7.6c-0.57-4.85,2.81-9.35,6.33-12.28 C604.9,468.83,614.81,466.59,623.56,468.99z"/> <path fill="#575756" d="M606.17,484.2c-3.73,1.43-6.24,6.15-4.78,10.07c1.46,4.29,6.98,4.23,10.65,4.72 c-4.55,2.08-11.2,1.92-13.37-3.42C596.75,490.83,600.34,483.14,606.17,484.2z"/> <path fill="#575756" d="M627.63,500.23c-0.88,0.48-1.8,0.9-2.74,1.22c-2.08,0.75-4.3,1.09-6.64,0.87 c-3.46-0.32-7.37-1.23-8.91-4.74c-2.09-4.76,2.32-10.17,7.16-10.31c-3.32,1.15-7.03,5.43-5.06,9.12c1.45,2.71,5.39,3.13,8.17,2.98 c1.74-0.1,3.38-0.45,4.92-1c0.99-0.35,1.95-0.78,2.87-1.28C627.25,498.13,627.31,499.2,627.63,500.23z"/> <path fill="#575756" d="M649.91,475.28c-3.62,0.18-7.13,0.49-10.65,1.42c-4.28,1.13-8.5,3.03-12.04,5.71 c-3.13,2.39-6.55,5.67-7.06,9.8c-0.5,4.15,2.95,6.67,6.07,8.58c-3.87-0.98-7.77-3.24-8.29-7.6c-0.57-4.85,2.81-9.35,6.33-12.28 C631.25,475.12,641.17,472.88,649.91,475.28z"/> <path fill="#575756" d="M638.4,505.28c-4.55,2.08-11.2,1.92-13.37-3.43c-0.05-0.13-0.1-0.26-0.14-0.4 c-0.32-0.95-0.43-2.01-0.36-3.08c0.3-4.25,3.47-8.7,7.99-7.88c-2.66,1.02-4.7,3.72-5.12,6.6c-0.15,1.04-0.09,2.11,0.23,3.14 c0.03,0.11,0.07,0.22,0.11,0.33C629.2,504.85,634.73,504.79,638.4,505.28z"/> <path fill="#575756" d="M689.05,471.9c-0.36,1.21-0.77,2.42-1.22,3.61c-2.8,7.51-7.14,14.5-12.68,20.22 c-4.22,4.35-9.3,7.85-14.97,10.04c-5.49,2.1-11.29,2.79-17.13,2.37c-3.82-0.27-7.79-2.42-7.55-6.76c0.21-3.84,3.49-7.49,7.36-7.83 c-2.34,0.6-4.19,2.38-5.19,4.55c-1.02,2.23-1.12,5.27,1.2,6.72c1.53,0.96,3.37,1.07,5.12,1.05c3.09-0.04,6.09-0.35,9.11-0.96 c12.13-2.46,21.86-11.46,28.57-21.43c1.98-2.95,3.78-6.02,5.37-9.2c0.54-1.04,1.04-2.1,1.53-3.17L689.05,471.9z"/> <g> <path fill="#575756" d="M846.53,412.25c-0.46,6.34-1.54,12.7-3.4,18.79c-0.95,3.1-2.16,6.08-3.41,9.06 c-2.07,4.97-5.24,9.74-8.8,13.76c-3.81,4.29-8.4,7.83-13.74,10c-1.62,0.66-3.36,1.24-5.11,1.61c-0.26,0.06-0.51,0.11-0.77,0.15 c0.75-1.19,1.45-2.42,2.1-3.67c0.34-0.1,0.68-0.21,1.01-0.33c8.04-2.73,14.51-8.88,19.05-16.2c9.88-15.94,11.95-36.15,9.33-54.38 c-1.73-12.08-5.74-23.81-11.78-34.43c-2.96-5.19-6.51-9.9-10-14.73c-3.58-4.95-6.85-10.13-9.72-15.52 c-11.28-21.09-17.12-46.74-7.73-69.65c3.42-8.35,9.1-15.92,16.78-20.79c3.5-2.22,7.92-4.58,12.2-3.74 c3.63,0.72,6.23,3.2,7.63,6.53c-2.17-4.56-6.99-7.31-12.04-5.7c-5.4,1.71-10.4,5.64-14.1,9.84c-8.01,9.08-11.63,21.17-12.22,33.1 c-1.19,24.48,9.25,48.03,23.85,67.16C840.68,362.81,848.33,387.48,846.53,412.25z"/> <path fill="#575756" d="M864.85,426.53c-3.52,18.1-12.02,36.34-26.74,47.99c-9,7.12-20.37,11.58-31.92,11.6 c-2.38,0-4.75,0-7.12,0.01c-0.46,0-0.93,0.01-1.4-0.01c-0.41-0.01-0.82-0.03-1.22-0.1c-0.32-0.06-0.62-0.14-0.89-0.25 c0.8-0.82,1.56-1.68,2.27-2.58c0.73,0.03,1.5-0.03,2.2-0.05c0.17-0.01,0.34-0.01,0.5-0.01c3.38-0.01,6.77,0.08,10.14-0.29 c21.04-2.3,37.31-18.42,45.21-37.31c3.97-9.51,6.48-19.4,7.5-29.66c0.63-6.46,0.69-12.96,0.21-19.43 c-0.42-5.77-1.36-11.4-2.46-17.06c-0.95-4.84-2.58-9.56-4.16-14.22c-2.12-5.68-4.54-11.27-7.47-16.59 c-2.79-5.07-6.05-9.8-9.41-14.51c-2.72-3.81-5.49-7.56-7.93-11.56c-5.72-9.38-10-19.42-11.88-30.29 c-1.99-11.56-1.32-24.87,5.89-34.62c1.35-1.82,3.05-3.47,4.95-4.69c1.94-1.24,4.24-1.79,6.04-3.24c3.34-2.71,4.17-6.98,3.01-10.95 c1.62,4.75,0.15,9.98-4.36,12.58c-1.24,0.71-2.6,1.19-3.78,2c-1.27,0.87-2.39,1.86-3.43,2.99c-1.85,2.04-3.33,4.53-4.34,7.09 c-4.52,11.51-3.36,24.21,0.36,35.78c3.71,11.51,9.71,22,16.85,31.7c6.41,8.72,12,17.8,16.16,27.81 C866.49,379.97,869.28,403.82,864.85,426.53z"/> </g> <path fill="#575756" d="M658.28,200.05c4.02-3.76,8.36-7.21,12.76-10.52c2.8-2.1,5.63-4.16,8.53-6.11c0.96-0.65,2.22-1.7,3.22-2.13 c5.66-2.42,5.58,8.58,5.15,11.6c-0.7,4.94-2.98,9.81-7.87,11.67c2.97-2.11,4.56-5.21,5.2-8.77c0.38-2.09,0.45-4.24,0.28-6.36 c-0.08-1.02-0.23-2.04-0.49-3.04c-0.16-0.63-0.46-2.26-1.13-2.58c0.12,0.06,0.4,0.08,0.5-0.04c-0.11,0.05-0.22,0.09-0.32,0.14 c0.07-0.04,0.14-0.07,0.21-0.1c-0.04,0.02-0.04,0.02-0.02,0.01C675.86,189.55,667.32,195.35,658.28,200.05z"/> <path fill="#575756" d="M681.52,214.19c9.93-4.18,20.01-8.05,29.83-12.5c2.78-1.26,5.58-2.53,8.21-4.09 c0.98-0.58,2.41-1.83,3.61-1.36c4.16,1.59-5.61,10.95-6.95,12.28c-6.26,6.17-14.24,11.58-23.14,12.65 c5.52-1.66,10.42-4.76,14.83-8.43c2.64-2.2,5.12-4.59,7.42-7.13c1.16-1.28,2.26-2.61,3.32-3.96c0.95-1.21,2.09-2.54,2.63-4 c-0.54,0.65,1.06,1.78,1.72,1.38c-6.95,4.3-14.74,7.17-22.46,9.76c-4.32,1.45-8.68,2.78-13.08,3.95 C687.11,212.82,681.52,214.02,681.52,214.19z"/> <path fill="#575756" d="M699.4,237.4c5.66-5.11,11.2-10.61,15.38-17.02c2.31-3.54,4.31-7.26,5.67-11.27 c1.11-3.51,1.69-6.97,2.18-10.61c1.72,8.19-0.7,16.32-5.15,23.23c-2.51,3.73-5.54,7.03-8.99,9.91 C705.78,233.9,702.69,236.06,699.4,237.4z"/> </g> <g id="Warstwa_11"> <g> <path fill="#2C3922" d="M464.08,368.5c0,0,0.12-0.16,0.35-0.45c0.22-0.28,0.54-0.67,0.96-1.15c0.83-0.97,2.03-2.29,3.61-3.77 c1.58-1.48,3.52-3.12,5.86-4.61c1.16-0.75,2.44-1.45,3.81-2.06c1.36-0.62,2.86-1.09,4.39-1.44c1.56-0.28,3.16-0.45,4.75-0.31 c0.79,0.04,1.57,0.21,2.33,0.35c0.74,0.23,1.5,0.37,2.17,0.69c0.69,0.28,1.36,0.56,1.96,0.92c0.3,0.17,0.61,0.34,0.9,0.51 c0.29,0.18,0.55,0.38,0.82,0.57c0.54,0.38,1.05,0.75,1.49,1.16c0.44,0.41,0.91,0.77,1.28,1.17c0.75,0.8,1.45,1.52,1.96,2.22 c0.54,0.69,1.02,1.28,1.34,1.8c0.68,1.02,1.07,1.61,1.07,1.61l-3.31,2.25c0,0-0.39-0.49-1.08-1.34c-0.33-0.44-0.79-0.9-1.3-1.45 c-0.49-0.57-1.13-1.09-1.8-1.7c-0.33-0.3-0.72-0.54-1.1-0.83c-0.37-0.3-0.79-0.53-1.21-0.77c-0.21-0.12-0.42-0.26-0.64-0.37 c-0.22-0.1-0.45-0.2-0.68-0.3c-0.45-0.23-0.93-0.36-1.41-0.51c-0.47-0.19-0.99-0.2-1.48-0.32c-0.51-0.03-1.01-0.1-1.53-0.08 c-1.03,0-2.08,0.23-3.11,0.5c-1.03,0.35-2.05,0.76-3.03,1.33c-0.97,0.55-1.91,1.17-2.78,1.86c-1.75,1.35-3.25,2.87-4.46,4.24 c-1.21,1.37-2.14,2.59-2.75,3.46c-0.31,0.43-0.53,0.77-0.68,0.99c-0.13,0.21-0.2,0.32-0.2,0.32L464.08,368.5z"/> </g> <path fill="#2C3922" d="M556.74,125.21c0,0-19.48-35.79-53.16-30.02c0,0-32.08,4.49-37.37-8.97c0,0,4.33,14.95,17.15,17.73 c0,0-10.57,3.12-17.46,7.44s-15.23,6.32-20.36,5.64c0,0,17.66,2.6,27.1,0s20.29,1.46,29.91,5.91c0,0-30.62,2.77-34.56,15.01 c0,0,31.7-7.38,33.15,6.67S555.76,130.87,556.74,125.21z"/> <g> <path fill="#2C3922" d="M456.86,493.33c0,0,0.93-6.47,2.57-17.78c0.8-5.63,1.74-12.44,2.64-20.21c0.9-7.77,1.74-16.51,2.21-26.03 c0.47-9.52,0.57-19.82-0.01-30.72c-0.29-5.45-0.73-11.04-1.35-16.75c-0.63-5.71-1.43-11.53-2.4-17.44 c-0.97-5.91-2.14-11.9-3.44-17.95c-0.67-3.02-1.35-6.06-2.1-9.11c-0.38-1.55-0.76-3.1-1.14-4.66c-0.39-1.56-0.77-3.12-1.16-4.68 c-1.57-6.23-3.08-12.6-4.59-19c-1.51-6.39-2.93-12.8-4.37-19.22c-2.79-12.85-5.5-25.71-7.93-38.41 c-1.27-6.34-2.38-12.66-3.55-18.89c-0.55-3.12-1.1-6.22-1.64-9.3c-0.27-1.54-0.54-3.07-0.81-4.6l-0.2-1.15l-0.2-1.22l-0.36-2.29 c-0.48-3.32-0.76-6.44-0.93-9.63c-0.17-3.17-0.18-6.31-0.05-9.41c0.24-6.2,1.05-12.24,2.33-18.01 c2.57-11.54,7.09-21.95,12.79-30.57c1.41-2.16,2.92-4.2,4.46-6.13c0.77-0.97,1.56-1.9,2.36-2.81c0.39-0.46,0.81-0.89,1.21-1.33 l0.61-0.66l0.38-0.41l0.3-0.29c0.4-0.39,0.79-0.78,1.19-1.17c0.4-0.39,0.76-0.76,1.23-1.17c0.9-0.78,1.78-1.61,2.66-2.31 c0.89-0.69,1.74-1.4,2.62-2.04c0.89-0.63,1.76-1.26,2.63-1.85c3.5-2.34,6.99-4.17,10.29-5.67c1.64-0.77,3.27-1.38,4.81-1.98 c1.58-0.52,3.05-1.09,4.51-1.48c5.77-1.69,10.5-2.3,13.73-2.52c1.61-0.14,2.86-0.13,3.7-0.14c0.84-0.01,1.27-0.01,1.27-0.01 l-0.01,6c0,0-0.38,0.02-1.13,0.05c-0.75,0.04-1.85,0.06-3.29,0.24c-2.87,0.3-7.11,1-12.28,2.72c-1.3,0.39-2.63,0.96-4.03,1.48 c-1.38,0.61-2.83,1.2-4.29,1.96c-2.93,1.46-6.02,3.22-9.07,5.43c-0.76,0.55-1.51,1.15-2.28,1.73c-0.77,0.59-1.49,1.25-2.26,1.89 c-0.76,0.64-1.41,1.32-2.14,1.99c-0.35,0.31-0.74,0.74-1.11,1.13c-0.38,0.4-0.76,0.8-1.15,1.21l-0.29,0.31 c0.13-0.14,0,0,0.01-0.01l-0.06,0.08l-0.13,0.15l-0.52,0.61c-0.35,0.41-0.71,0.81-1.04,1.24c-0.69,0.84-1.37,1.7-2.03,2.6 c-1.33,1.78-2.61,3.66-3.81,5.65c-4.85,7.93-8.6,17.48-10.55,27.99c-0.96,5.25-1.51,10.73-1.52,16.34 c-0.02,2.8,0.09,5.63,0.35,8.48c0.25,2.83,0.63,5.76,1.12,8.5l0.43,2.25l0.22,1.06l0.24,1.13c0.32,1.51,0.65,3.02,0.97,4.54 c0.65,3.04,1.31,6.09,1.97,9.17c1.39,6.14,2.72,12.36,4.21,18.61c2.87,12.51,6.02,25.16,9.24,37.78c1.66,6.3,3.3,12.61,5.01,18.85 c1.71,6.23,3.42,12.44,5.23,18.64c0.89,3.1,1.78,6.18,2.67,9.25c0.92,3.12,1.78,6.24,2.62,9.35c1.64,6.23,3.17,12.42,4.47,18.57 c1.3,6.15,2.44,12.23,3.39,18.23c0.93,6,1.68,11.9,2.26,17.67c1.16,11.53,1.58,22.52,1.56,32.62 c-0.03,10.11-0.48,19.33-1.03,27.44c-0.55,8.11-1.19,15.12-1.73,20.87c-1.1,11.42-1.73,17.95-1.73,17.95L456.86,493.33z"/> </g> <g> <path fill="#2C3922" d="M445.46,282.38c0,0-0.09-0.04-0.26-0.13c-0.06-0.04-0.33-0.14-0.67-0.27c-0.36-0.1-0.79-0.27-1.33-0.36 c-0.53-0.14-1.14-0.19-1.82-0.28c-0.34-0.03-0.7-0.01-1.07-0.02c-0.37-0.03-0.75,0-1.15,0.05c-0.39,0.05-0.81,0.04-1.22,0.14 c-0.41,0.09-0.84,0.19-1.27,0.28c-0.44,0.07-0.85,0.29-1.29,0.42c-0.43,0.17-0.9,0.27-1.32,0.52c-0.85,0.46-1.77,0.84-2.58,1.47 l-1.26,0.86c-0.41,0.31-0.78,0.68-1.17,1.01c-0.39,0.34-0.77,0.67-1.16,1.01c-0.37,0.35-0.69,0.75-1.04,1.11 c-0.34,0.37-0.67,0.73-1,1.09c-0.16,0.18-0.33,0.36-0.49,0.53c-0.14,0.19-0.28,0.38-0.42,0.57c-0.56,0.75-1.09,1.47-1.58,2.12 c-0.52,0.64-0.88,1.32-1.24,1.89c-0.35,0.58-0.66,1.08-0.91,1.5c-0.51,0.83-0.8,1.31-0.8,1.31l-3.6-1.75c0,0,0.25-0.54,0.7-1.48 c0.22-0.47,0.49-1.05,0.81-1.7c0.32-0.66,0.63-1.42,1.12-2.19c0.46-0.78,0.96-1.63,1.49-2.53c0.13-0.22,0.27-0.45,0.41-0.68 c0.16-0.22,0.32-0.44,0.49-0.66c0.33-0.45,0.67-0.91,1.01-1.37c0.35-0.46,0.68-0.95,1.07-1.41c0.41-0.45,0.83-0.9,1.24-1.35 c0.43-0.45,0.83-0.93,1.29-1.37l1.46-1.25c0.94-0.88,2.08-1.56,3.17-2.27c0.53-0.38,1.15-0.62,1.72-0.92 c0.59-0.26,1.14-0.6,1.76-0.79c0.61-0.21,1.2-0.41,1.79-0.6c0.58-0.2,1.19-0.28,1.77-0.42c0.58-0.13,1.15-0.23,1.71-0.27 c0.56-0.05,1.1-0.12,1.62-0.13c1.05,0,2.01,0,2.87,0.11c0.86,0.06,1.61,0.24,2.23,0.36c0.63,0.16,1.11,0.28,1.55,0.44 c0.33,0.12,0.51,0.18,0.51,0.18L445.46,282.38z"/> </g> <path fill="#CE603D" d="M543.46,171.93c0,0-65.34-15.51-76.61-26.02c0,0,27.83-34.74,91.44,12.08"/> <path fill="#CE603D" d="M538.03,192.38c0,0-17.03,12.48-30.51,14.86c-13.48,2.38-26.58,14.24-29.42,17.18 c0,0,1.11-34.32,18.49-37.68c17.38-3.36,43-5.71,42.63-3.98"/> <path fill="#CE603D" d="M543.19,169.11c0,0-36.73-15.57-44.2-9.88c-7.47,5.69-26.27,7.99-30.76,10.23c0,0,9.26,16.98,26.59,16.93 c17.33-0.05,48.08-4.61,48.08-4.61L543.19,169.11z"/> <path fill="#CE603D" d="M599.12,133.38c0,0,13.54-4.32,18.26-26.27c4.72-21.95,23.39-21.62,29.26-23.08c0,0-41.37-9.92-45.38,3.27 c-4.01,13.19-12.64,46.22-12.64,46.22L599.12,133.38z"/> <path fill="#CE603D" d="M588.17,134.64c0,0,13.4-41.86,13.48-57.18c0.08-15.32-20.13-26.09-20.13-26.09s-13.19,16.51-12.96,30.9 s12.65,54.41,13.43,55.49C582.77,138.85,588.17,134.64,588.17,134.64z"/> <path fill="#CE603D" d="M573.47,143.48c0,0-25.73-38.25-37.58-47.95c-11.85-9.7-32.94-0.78-32.94-0.78s4.53,20.64,15.86,29.52 s42.41,30.59,43.74,30.67C563.87,155.01,573.47,143.48,573.47,143.48z"/> <path fill="#CE603D" d="M580.61,138.55c0,0-10.72-71.29-35.06-78.44c0,0,0.42,21.67-2.93,32.82 c-3.35,11.16,27.49,47.88,31.13,48.85C577.38,142.74,580.61,138.55,580.61,138.55z"/> <path fill="#CE603D" d="M562.98,152.79c0,0-44.52-30.62-53.77-32.89c-9.25-2.26-19.04-13.6-19.7-13.92 c-0.66-0.33-5.42,23.45,7.04,31.22c12.45,7.77,25.3,17.21,35.73,18.68c10.43,1.46,23.95-0.58,25.44,0.89 C559.21,158.25,562.98,152.79,562.98,152.79z"/> <path fill="#E9DFC2" d="M582.73,173.19c-18.77,18.22-43.84,25.13-50.28,18.49c-6.44-6.64,7.78-20.83,26.55-39.05 c18.77-18.22,34.99-33.56,41.43-26.92C606.88,132.36,601.5,154.98,582.73,173.19z"/> <g> <path fill="#65846E" d="M420.25,287.01c0,0-1.43-19.34-13.04-28.41c-11.62-9.07-32.39-14.53-37.25-14.85 c0,0,8.78,17.47-12.41,14.34c0,0-21.84,3.17-25.76,5.19c0,0,14.82,16.59-4,17.27c0,0-9.88,1.25-16.38,7.14 c0,0,9.08,8.14,10.68,8.39c0,0-10.55,18.23-17.11,20.32c0,0,6.29,1.8,7.67,1.36c1.38-0.44-2.06,9.04-8.77,13.08 c0,0,12.33-4.32,13.71,4.76c1.38,9.08,3.16,32.5,6.29,38.74c0,0,1.89,23.77,12.38,47.08c10.5,23.3,12.94,39.28,11.14,45.57 c-1.8,6.29,8.02,1.24,14.32-7.63c6.3-8.87,29.37-46.33,34.5-52.92c5.13-6.59,22.65-31.61,23.19-38.26 c0.54-6.65,9.38-25.47,14.62-31.71s15.14-12.22,18.33-9.36c0,0-2.39-27.73,20.18-25.04c0,0,0.04-12.96-4.64-14.51 c0,0,5.12-5.44,8.7-7.35c0,0-8.39-8.36-6.37-13.96c0,0-10.06,16.17-21.33,17.86c-11.26,1.7-10.95,3.88-18.42,5.51 C422.99,291.24,420.63,289.99,420.25,287.01z"/> </g> <g> <path fill="#6C9196" d="M490.88,365.11c0,0,7.61,1.91,9.33-2.03c1.72-3.94,9.69-24.39,14.91-27.75c5.22-3.36,13.3-5.23,17.75-3.06 c0,0-2.37,8.1,4.48,5.58c0,0,5.39-2.92,9.38-0.24c3.99,2.68,5.27,6.75,11.37,5.66c0,0-4.08,12.06,4.89,12.45 c0,0-2.42,18.59,10.11,18.24c0,0-0.37,14.85,4.24,18.27c0,0-1.97,17.44,8.09,25.57c0,0,11.28,20.4,8.22,22.58 c-3.06,2.18-32.86-9.63-36.92-11.63c-4.05-2-12.55-7.81-14.98-6.53c-2.44,1.28-4.04,5.51-4.04,5.51s-11.91-10.35-15.56-4.67 c0,0-23.61-18.49-34.88-2.3c0,0-11.9-11.99-15.14-16.92s-5.42-27.93,1.89-31.78C481.32,368.21,486.81,364.65,490.88,365.11z"/> <g> <path fill="#575756" d="M593.65,440.38C593.04,440.66,593.1,440.74,593.65,440.38L593.65,440.38z"/> </g> </g> <path opacity="0.2" fill="#A46350" d="M601.5,127.15c-0.2,4.25-1.11,8.39-2.76,12.42c-1.54,2.99-3.09,5.99-4.63,8.98 c-5.72,8.84-14.06,16.28-23.75,20.51c-7.79,3.4-17.17,4.92-25.27,1.54c-0.93-0.4-1.79-0.85-2.63-1.34 c-9.37,10.16-14.33,17.99-10.02,22.43c6.44,6.64,31.5-0.28,50.28-18.49C600.33,156.12,606.15,135.17,601.5,127.15z"/> </g> <g id="Warstwa_13"> <path opacity="0.2" fill="#1D1D1B" d="M536.51,192.69c0,0-11.74,8.03-14.86,9.48c-3.13,1.45-21.12,6.49-25.83,9.2 c-4.71,2.71-14.82,10.32-17.04,12.24s5.73-17.38,14.42-19.18c8.69-1.79,41.12-11.78,40.95-11.89"/> <path opacity="0.2" fill="#1D1D1B" d="M469.24,171.26c-0.15-0.27,10.75,13.2,20.27,15.12c6.02,1.22,18.59-1.74,25.96-2.56 s16.95-1.42,16.95-1.42l1.52-3.53c0,0-24.75-0.93-32.82-0.47C491.21,178.97,469.98,172.61,469.24,171.26z"/> <path opacity="0.2" fill="#1D1D1B" d="M476.59,151.06c-0.26-0.01,18.14,8.15,19.32,8.09s3.09,0.08,3.09,0.08s4.53-3.72,7.82-2.2 s32.39,10.47,32.39,10.47l2.77,1.11c0,0,4.81-3.9,4.58-3.67s-30.04-13.34-35.65-13.89s-13.64,1.44-15.16,1.66 S477.81,151.12,476.59,151.06z"/> <path opacity="0.2" fill="#1D1D1B" d="M488.53,118.83c0,0,1.28,13.75,4.26,14.97s19.01,0.8,24.54,2.6s25.06,11.01,27.84,12.75 s10.37,6.86,10.37,6.86l1.2-1.17c0,0-11.83-9.94-15.11-11.45s-25.6-12.28-29.07-12.73s-11.65-0.76-15.14-2.73 S490.25,122.91,488.53,118.83z"/> <path opacity="0.2" fill="#1D1D1B" d="M560.32,150.2c0,0-33.5-21.05-35.41-22.19s-14.56-12.08-18.6-23.48 c-3.91-11.01-3.38-9.74-3.38-9.74c3.07,4.4,5.51,7.81,8.48,11.56c4.78,6.03,10.51,9.99,16.53,14.74c8.86,7,19.09,12.09,27.37,19.85 c2.62,2.45,5.13,5.03,7.66,7.57L560.32,150.2z"/> <path opacity="0.2" fill="#1D1D1B" d="M545.66,61.86c0.02,0.44,0.28,18.77-1.25,21.84s-1.5,10.87-1.44,14.95s9.68,21.54,13.77,25.5 s14.84,16.32,14.84,16.32l2.98-2.52c0,0-13.03-13.66-14.24-17.3s-11.51-22.13-10.6-30.62s-4.01-27.37-4.09-28.62"/> <path opacity="0.2" fill="#1D1D1B" d="M590.62,125.89c0,0,6.28-23.33,6.71-24.88s4.51-16.63,7.47-17.91s5.24-2.66,9.19-2.65 c0,0-1.67-0.77-5.15,5.76s-6.67,12.68-8.34,19.76s-5.95,16.98-4.25,18.17L590.62,125.89z"/> <path opacity="0.2" fill="#1D1D1B" d="M581.52,51.42c0,0-5.58,10.11-5.58,17.69s0.45,33.17,3.18,42.44 c2.79,9.46,5.33,18.23,5.33,18.23l-2.28,1.73c0,0-3.03-2.27-3.68-4.46s-9.03-35.5-9.42-38.99s0.58-17.5,4.39-23.78 S581.52,51.42,581.52,51.42z"/> <path opacity="0.2" fill="#FFFFFF" d="M581.52,51.42c0,0,10.07,4.76,15.28,14.02s4.08,18.39,3.64,22.63c0,0-1.54-12.1-5.5-18.96 S581.52,51.42,581.52,51.42z"/> <path opacity="0.2" fill="#FFFFFF" d="M546.57,60.45c0.31,0.24,10.16,5.36,14.39,14.37c2.08,4.43,11.1,26.58,12.08,30.56 s0.15,0.61,0.15,0.61s-8.44-17.86-13.14-23.94S546.57,60.45,546.57,60.45z"/> <path opacity="0.2" fill="#FFFFFF" d="M506.65,93.31c-0.39,0.07,11.22-3.47,17.41-2.18s16.2,6.98,21.49,14.86 c0,0-7.37-4.8-15.56-7.57S513.4,92.16,506.65,93.31z"/> <path opacity="0.2" fill="#FFFFFF" d="M489.51,106.03c0,0,8.26,9.7,15.34,12.79s14.78,7.17,16.53,8.33s12.57,8.34,12.57,8.34 s-14.01-7.34-21.39-9.6s-17.41-7.68-19.39-10.05S489.51,106.03,489.51,106.03z"/> <path opacity="0.2" fill="#FFFFFF" d="M467.08,145.63c0,0,10.13-8.65,17.1-10.14s28.58-0.39,35.88,1.93s18.21,8.2,20.01,9.09 c0,0-5.98-2.16-19.05-3.74s-31.68-4.21-37.88-2.11s-16.29,5.25-16.29,5.25"/> <path opacity="0.2" fill="#FFFFFF" d="M470.74,168.61c0,0,12.02-2.1,16.39-4.23s12.53-5.74,17.44-5.25s21.6,2.38,27.54,5.54 c0,0-7.26-0.46-14.78-0.82s-13.86-0.63-19.01,1.35s-16.77,6.28-18.74,5.64S470.74,168.61,470.74,168.61z"/> <path opacity="0.2" fill="#FFFFFF" d="M518.08,183.55c-0.41,0.04-20.09,2.18-25.3,5.54s-13.3,17.04-14.02,24.89 c0,0,8.48-15.94,14.55-19.82S518.08,183.55,518.08,183.55z"/> <path opacity="0.2" fill="#1D1D1B" d="M532.11,184.57c0,0-4.28,9.1,5.54,10.08s24.72-6.86,25.63-7.35s7.55-4.22,7.55-4.22 s-16.54,6.32-22.56,7.47C542.33,191.68,536.16,192.81,532.11,184.57z"/> <path opacity="0.2" fill="#FFFFFF" d="M419.89,284.13c0,0-5.03-24.35-20.15-29.8s-28.14-10.59-28.14-10.59s5.09,8.02-0.5,10.59 s1.38,2.42-5.16,3.74s-29.27,2.5-32.19,5.19c0,0,5.56,8,2.92,11.54s1.59,4.23-5.84,6.15s-18.34,5.75-19.41,6.72 s10.68,8.39,10.68,8.39l-13.7,18.2c0,0,14.29-15.84,26.45-20.56s23.35-9.49,25.73-11.75s-10.03-10.34-5.82-12.4 s31.47,7.26,34.57,3.71s-6.37-13.08,0.91-12.41S420.1,277.7,419.89,284.13z"/> <path opacity="0.2" fill="#FFFFFF" d="M425.26,289.78c0,0,9.34-2.25,15.16-3.74s12.39-1.16,15.28-3.09s14.53-16.71,14.53-16.71 s0.11,10.69,6.97,14.02c0,0-7.24,6.89-8.27,7.09s4.99,6.77,2.75,13.79c0,0-11.17-10.91-20.45-2.53s-20.77,18.32-18.39,9.84 s11.15-14.26,2.38-14.73S426.74,289.8,425.26,289.78z"/> <path opacity="0.2" fill="#1D1D1B" d="M451.22,326.5c0,0,2.08-11.09-4.19-10.62s-20.12,16.33-21.78,17 c-8.46,3.43-4.74-34.03-8.66-35.83c-7.84-3.61-16.36,48.13-9.45,69.55c3.38,10.49-16.38,26.19-21.64,31.91s-8.76-42.48-12.56-37.05 s-13.31,61.74-15.51,68.1c-1.33,3.83-7.98,39.42-8.52,39.94c0,0,7.51-2.43,10.16-6.3s24.37-38.32,28.76-44.34 s27.43-35.02,28.34-39.38s6.72-22.64,9.08-27.98s12.3-18.63,12.3-18.63C441.36,330.39,451.22,326.5,451.22,326.5z"/> <path opacity="0.2" fill="#1D1D1B" d="M470.37,377.35c-1.05,5.47-2.33,23.16,1.76,26.5s14.26,16.18,14.26,16.18 s5.52-3.97,7.03-4.55s-3.08-4.18-3.64-12.53s1.5-28.53,2.71-30.19c0,0-8.95,21.28-10.97,25.39s-5.19,5.23-6.69,0.37 S470.37,377.35,470.37,377.35z"/> <path opacity="0.2" fill="#1D1D1B" d="M510.57,374.17c0,0,16.94,33.12,12.64,33.49c0,0,4.71,20.28-1.29,13.41 c0,0,4.47-1.63,6.47,0.88s9.31,5.79,9.31,5.79s1.63-5.59,4.04-5.51s15.1,5.51,15.1,5.51s-11.59-14.28-18.97-22.5 S516.99,374.3,510.57,374.17z"/> <path opacity="0.2" fill="#1D1D1B" d="M528.4,377.35c0,0,20.23,20.97,25.08,29.19s11.96,28,3.36,21.19c0,0,18.77,9.15,22.97,9.85 s12.35,3.44,13.09,3.12s1.27-2.27,1.27-2.27s-35.39-38.87-40.69-44.04C532.74,374.17,528.4,377.35,528.4,377.35z"/> <path opacity="0.2" fill="#FFFFFF" d="M502.55,355.94c0,0,7.71-17.31,11.46-19.68s18.07-6.24,18.29-4.22s-0.63,5.28,1.41,5.41 s2.79,0.17,5.59-0.38s8.7,1.53,10.39,3.07s8.41,3.14,8.41,3.14s-2.21,5.37-0.83,7.21c0,0-7.52-4.96-12.97-4.54 s-9.12-3.67-15.15-1.07s-10.99,2.11-9.5-2.11S509.87,345.76,502.55,355.94z"/> <path opacity="0.2" fill="#FFFFFF" d="M573.1,373.96c0,0-7.73-1.69-9.54-8.08l-0.71-8.4c0,0-1.29,5.02-6,5.97 s-24.44-6.44-23.94-3.71s13.13,5.8,8.91,5.76c-4.67-0.05-21.86-3.06-24.32-2.41c-2.8,0.74,18.5,5.23,22.96,6.33s26.21,6.7,27.1,7.8 s5.35,17.39,9.69,16.12L573.1,373.96z"/> </g> <g id="Warstwa_12"> <path fill="#2C3922" d="M542.47,167.22c-1.07,1.13-1.59,2.57-3.16,1.93c-1.65-0.68-3.31-1.33-4.98-1.98 c-3.34-1.28-6.7-2.49-10.1-3.59c-6.3-2.04-12.99-4.25-19.66-4.46c-2.99-0.08-5.5,1.34-8.06,2.66c-3.01,1.55-6.28,2.53-9.54,3.37 c-6.12,1.57-12.88,1.93-18.72,4.35c4.15-2.14,8.82-2.94,13.29-4.11c4.83-1.26,9.79-2.79,14.19-5.19 c-9.72-3.29-21.4-6.87-28.88-14.25c5.16,3.58,11.27,5.39,17.13,7.45c3.38,1.11,6.78,2.19,10.17,3.26c1.7,0.53,3.4,1.06,5.1,1.59 c1.15-0.56,2.36-1,3.63-1.19c6.63-1.02,14.2,1.42,20.46,3.37C529.81,162.46,536.08,164.97,542.47,167.22 C541.74,167.99,542.13,167.1,542.47,167.22z"/> <path fill="#575756" d="M541.98,171.38c-0.07,0.19-0.17,0.26-0.32,0.2C541.58,171.24,541.68,171.17,541.98,171.38 C541.91,171.45,541.88,171.34,541.98,171.38z"/> <path fill="#575756" d="M478.75,223.64c-0.22,0.27-0.44,0.55-0.66,0.82c0-0.02,0-0.05,0.01-0.08 C478.16,224.2,478.4,223.94,478.75,223.64z"/> <path fill="#575756" d="M541.98,171.38c-0.1,0.12-0.21,0.23-0.33,0.33C541.65,171.35,541.53,171.2,541.98,171.38 C541.91,171.45,541.88,171.34,541.98,171.38z"/> <path fill="#2C3922" d="M646.63,84.08c-7.74,2.09-16.66,3.32-22.08,9.9c-6.25,7.58-6.28,18.32-10.71,26.85 c-2.04,3.92-4.71,7.6-8.13,10.42c-1.07,0.88-2.09,1.06-2.06,2.51c0.02,1.29-0.07,2.59-0.25,3.87c-0.36,2.62-1.08,5.18-1.98,7.65 c-3.55,9.73-9.55,18.61-16.77,25.99c5.45-5.68,10.27-12.11,13.62-19.25c3.08-6.56,5.68-15.13,3.56-22.36 c-4.36-14.91-29.33,12.04-34.07,16.58c-5.32,5.12-10.64,10.23-15.9,15.42c-5.46,5.39-10.87,9.98-15.42,15.98 c-3.28,4.33-8.28,13.1-0.23,15.27c6.65,1.79,14.39-0.41,20.59-2.82c9.65-3.75,18.49-9.72,25.93-16.89 c-6.91,6.77-14.89,12.62-23.71,16.65c-4.51,2.06-9.26,3.64-14.15,4.45c-2.38,0.39-4.82,0.65-7.22,0.36 c-1.75-0.21-1.84-0.25-3.25,0.88c-1,0.8-2.01,1.56-3.05,2.31c-4.15,2.97-8.61,5.51-13.31,7.51c-4.77,2.04-9.7,2.98-14.62,4.48 c-4.97,1.52-9.66,4.01-14.08,6.72c-3.51,2.15-7.41,4.41-10.57,7.07c6.44-7.8,15.27-14.25,25.09-17c5.43-1.52,10.76-2.9,15.98-5.09 c5.21-2.18,10.24-4.76,15.2-7.46c-4.48-1.52-6.45-6.94-3.93-11.09c-7.1,0.8-14.17,1.88-21.23,2.97 c-5.92,0.91-13.21,1.18-18.21,4.82c-4.4,3.19-6.95,8.3-8.79,13.28c-1.19,3.23-2.14,6.55-2.92,9.9c-0.77,3.31-1.87,7.11-1.87,10.52 c-0.36-7.59,0.66-15.35,3.07-22.56c1.89-5.67,4.94-11.66,10.28-14.78c-9.97-1.3-18.6-9.01-23.2-17.61 c4.12,6.5,10.42,12.32,17.85,14.68c4.68,1.49,9.1,1.22,13.81,0.3c4.64-0.91,9.35-1.36,14.05-1.76c4.44-0.37,8.87-0.74,13.32-0.88 c0.86-0.03,3.56,0.45,4.34-0.06c0.99-2.1,2.21-4.09,3.55-5.97c5.33-7.45,12.25-13.99,18.79-20.37 c-13.83-8.31-28.39-16.38-44.45-19.3c-14.55-2.64-31.76-1.35-42.67,9.8c5.67-7.85,14.94-11.82,24.3-13.1 c-2.91-3.89-3.41-9.88-3.44-14.55c-0.02-2.52,0.27-4.98,0.5-7.49c0.12-1.3,0.07-3.96,1.31-4.79c-1.5,1.16-1.03,6.34-1.08,7.97 c-0.11,4.2,0.23,8.49,1.49,12.52c0.57,1.81,1.33,3.55,2.32,5.17c1,1.57,3.09,0.74,4.82,0.68c4.4-0.14,8.82,0.18,13.16,0.91 c15.85,2.67,30.24,10.88,42.83,20.58c1.8,1.39,2.63-0.1,3.99-1.42c1.08-1.06,2.18-2.1,3.27-3.15c3.08-2.95,6.17-5.9,9.3-8.79 c1.07-0.52,2.1-1.92,3.02-2.73c1.56-1.38,3.14-2.73,4.74-4.05c1.4-1.15,0.32-3.84-0.13-5.6c-1.87-7.37-3.74-14.74-5.61-22.1 c-1.58-6.22-3.18-12.11-5.49-18.12c-4.1-10.73-9.53-22.67-20.61-27.73c11.59,4.26,17.79,16.11,22.36,26.78 c-1.78-12.98,5.51-25.97,13.61-35.51c-4.13,5.92-7.75,12.17-9.99,19.06c-2.57,7.9-1.98,15.5-0.3,23.52 c2.6,12.42,6.15,24.64,9.91,36.75c1.5-1.13,3.04-2.22,4.63-3.22c1.04-0.66,2.89-1.21,3.72-2.07c1.27-4.11,2.5-8.24,3.67-12.39 c2.28-8.09,4.29-16.24,6.02-24.46c1.58-7.55,2.45-14.91-1.58-21.87c-3.75-6.47-9.74-11.51-16.08-15.33 c5.9,3.02,11.42,7.07,15.56,12.28c4.73,5.95,5.91,12.65,5.09,20.08c5.19-5.12,15.1-4.55,21.75-4.05 C631.64,80.31,639.18,82.06,646.63,84.08c-7.4-1.09-14.63-2.6-22.14-2.84c-5.83-0.19-12.97-0.28-18.35,2.4 c-2.72,1.36-3.53,3.35-4.28,6.15c-0.99,3.69-1.98,7.38-2.97,11.07c-2.08,7.78-4.14,15.56-6.23,23.34 c4.91-1.85,9.29,0.29,10.51,5.41c4.42-3.24,7.94-8.3,10.1-13.3c2.3-5.34,3.05-11.23,5.5-16.52c2.29-4.93,6.29-9.25,11.19-11.65 C635.16,85.59,641.02,85.12,646.63,84.08C638.3,86.33,639.41,85.42,646.63,84.08z"/> <path fill="#2C3922" d="M571.81,138.5c-0.77,0.7-1.73,2.38-2.61,1.49c-1.48-1.51-2.91-3.07-4.3-4.66 c-2.95-3.38-5.75-6.91-8.44-10.5c-2.44-3.25-4.76-6.59-6.9-10.05c-2.02-3.26-3.55-6.76-6.02-9.7c-4.5-5.35-9.28-11.05-16.4-12.72 c-8-1.88-16.58-0.32-24.19,2.44c6.74-2.98,14.24-4.87,21.65-4.25c7.3,0.61,12.83,4.55,17.7,9.77c-1.98-6.35,0.82-12.86,1.72-19.21 c0.98-6.94,1.37-13.95,1.54-20.96c0.51,7.35,0.36,14.85-0.31,22.18c-0.34,3.72-1.24,7.34-1.64,11.04 c-0.38,3.62,0.85,6.97,2.31,10.22c2.9,6.45,7.18,12.19,11.46,17.79c2.28,2.99,4.59,5.96,7.01,8.85 C566.68,132.98,569.84,135.55,571.81,138.5C571.09,139.15,571.75,138.41,571.81,138.5z"/> <path fill="#575756" d="M569.66,140.46C569.59,140.54,569.22,139.95,569.66,140.46C569.65,140.47,569.6,140.39,569.66,140.46z"/> <path fill="#575756" d="M571.86,138.45C571.84,138.49,571.23,137.97,571.86,138.45C571.85,138.47,571.78,138.39,571.86,138.45z"/> <path fill="#2C3922" d="M560.32,149.28c-2.23,2.16-1.81,2.26-4.04,0.79c-2.16-1.42-4.33-2.84-6.49-4.27 c-6.23-4.09-12.46-8.19-18.69-12.28c-4.1-2.69-8.19-5.38-12.29-8.07c-4.12-2.71-8.69-4.15-13.11-6.22 c-6.49-3.04-11.15-8.28-16.18-13.21c3.7,3.12,7.17,6.54,11.22,9.22c4.17,2.75,9.13,3.79,13.62,5.86 c-6.37-7.53-9.22-16.89-11.41-26.31c1.74,6.35,4.26,12.49,7.62,18.16c3.55,6,7.8,10.02,13.77,13.52 C536.6,133.68,548.52,141.34,560.32,149.28C559.72,149.86,549.34,141.89,560.32,149.28z"/> <g> <path fill="#575756" d="M541.67,171.28c0,0.14-0.01,0.29-0.02,0.43C541.9,171.46,542.2,171.42,541.67,171.28 C541.66,171.38,541.78,171.31,541.67,171.28z"/> </g> <g> <path fill="#2C3922" d="M337.11,277.89c-2.02,2.99-5.98,3.47-9.28,3.77c-4.89,1.04-9.86,3-14.15,6.11 c2.67,2.41,5.44,4.97,8.52,6.73c0.46,0.26,0.74,1.39,0.97,1.87c0.52,1.08-1.73,3.6-2.36,4.57c-3.09,4.76-6.63,10.32-11.33,13.96 c3.02-1.11,5.88-2.7,8.65-4.27c5.25-3,10.35-6.27,15.57-9.33c9.33-5.47,19.22-10.38,29.86-12.66c10.46-2.25,21.65-1.67,32.3-1.67 c7.73,0,15.47,0.08,23.19,0.41c-7.79,0.68-15.6,1.15-23.4,1.6c-10.39,0.6-21.27,0.26-31.46,2.55 c-11.14,2.5-21.41,7.67-31.41,13.01c-7.51,4.01-15.58,9.35-24.15,11c-0.3,0.21-0.6,0.42-0.9,0.61c1.62,0.54,3.38,1.04,4.77,0.77 c0.6-0.12,1.02,0.24,1.24,0.76c0.6,2.25-2.05,5.68-3.28,7.33c-1.75,2.35-3.94,4.47-6.56,5.82c2.2-1.55,3.97-3.65,5.4-5.91 c0.96-1.51,2.76-4.2,2.85-6.23c-3.2,0.42-7.01-1.13-10.04-1.89c3.22-1.85,5.94-3.66,8.4-6.49c3.6-4.14,6.66-8.84,9.47-13.57 c-1.88-1.07-3.59-2.84-5.09-4.12c-1.93-1.64-3.81-3.33-5.69-5.02c5.44-4.36,11.93-7.94,19.1-8.22c2.69-0.1,6.42-0.35,7.85-3.01 c2.18-4.07-2.05-10.05-4.34-13.13C335.03,266.56,340.26,273.05,337.11,277.89z M312.78,318.59c0.04-0.01,0.08-0.02,0.11-0.02 C312.86,318.57,312.82,318.58,312.78,318.59C312.78,318.59,312.78,318.59,312.78,318.59z"/> <path fill="#2C3922" d="M406.51,259.56c-0.89-1.5-4.32-2.87-5.73-3.65c-3.13-1.73-6.39-3.14-9.67-4.55 c-5.95-2.31-12.46-4.91-18.9-5.88c1.48,4.48,1.61,10.04-2.87,12.63c-3.29,2.24-8.08,1.58-11.8,1.04 c-2.68,0.34-5.36,0.66-8.04,1.03c-5.81,0.79-12.24,1-17.71,3.09c5.36-2.8,12.17-3.67,18.04-4.82c3.86-0.76,7.15-1.4,11.01-1.17 c3.71,0.28,8.87-0.66,9.45-5.08c0.47-3.6-1.23-6.97-2.76-10.1c13.96,1.09,29.27,6.86,40.31,15.5c8.32,6.51,11.9,18.67,12.38,28.83 c0.01,0.16,0.02,0.34,0.03,0.58C418.78,277.17,414.68,265.82,406.51,259.56z"/> <path fill="#2C3922" d="M449.28,285.53c-2.26,0.53-4.56,0.78-6.81,1.38c-3.33,1.01-6.49,2.59-9.9,3.31 c-3.4,0.66-12.39,2.58-12.33-3.21c1.22,5.28,10.33,1.7,13.5,0.41c3.28-1.33,6.33-2.93,9.79-3.78c1.9-0.47,3.84-0.73,5.75-1.15 c8.6-1.91,15.51-9.78,20.92-16.26C466.08,274.8,458.84,283.28,449.28,285.53z"/> <path fill="#2C3922" d="M347.33,467.29c-0.02,0.06,0-0.03,0.08-0.31c-0.45,2.09,0.26,2.69,1.43,2.54 c0.94-1.06,1.75-2.21,2.46-3.45c3.78-6.66,5.73-14.33,7.53-21.71c2.01-8.26,3.59-16.62,4.97-25c1.44-8.77,2.67-17.56,3.79-26.38 c1-7.97,1.26-16.07,3.26-23.87c4.35-16.97,10.74-33.49,16.93-49.86c5.3-14.01,16.47-24.36,30.14-30.29 c-1.97,1.03-3.85,2.2-5.71,3.42c-6.47,4.28-12.44,9.5-16.88,15.91c-4.59,6.65-6.61,14.78-9.19,22.35 c-2.88,8.43-5.7,16.86-8.4,25.35c-2.36,7.59-4.99,15.29-5.69,23.24c-1.52,17.29-4.34,34.63-8.14,51.56 c-1.76,7.83-3.77,15.64-6.53,23.18c-1.99,5.44-4.27,11.39-8.47,15.55c2.05-0.31,5.41-2.79,6.4-3.64c3.48-3.04,6.01-6.74,8.48-10.6 c5.59-8.72,10.95-17.59,16.41-26.39c4.4-7.1,8.69-14.33,13.5-21.16c4.03-5.71,8.15-11.34,11.99-17.18 c4.35-6.6,9.94-13.91,12.03-21.64c1.34-5.32,2.67-10.2,4.93-15.29c2.85-6.4,6.04-13.41,10.77-18.68c2.84-3.17,6.31-5.9,10.08-7.88 c2.01-1.06,4.97-2.38,7.46-1.97c-0.08-6.3,1.32-13.15,5.22-18.11c3.93-5,9.52-6.17,15.47-5.84c0.01-4.49-0.24-11.72-4.86-13.38 c2.83-2.83,5.76-5.55,9.19-7.64c-3.17-3.45-7.43-9.02-5.77-13.88c-1.46,5.17,3.64,10.71,6.97,14.02 c-3.09,1.99-5.76,4.43-8.27,7.09c4.46,2.53,4.43,11.4,4.49,15.62c-6.98-0.32-12.97,0.72-16.74,7.25 c-3.45,5.97-3.3,13.31-2.77,19.95c-0.73-0.64-1.55-1.67-2.41-2.1c-1.44-1.25-4.52,0.3-5.88,0.97c-4.36,2.14-8.4,5.51-11.3,9.4 c-4.95,6.84-8.73,14.96-11.55,22.9c-1.38,3.89-1.69,7.89-3.34,11.63c-6.11,13.86-16.24,25.58-24.78,37.93 c-7.64,11.05-14.86,22.4-22.24,33.63c-3.08,4.69-6.22,9.32-9.43,13.92c-2.42,3.46-5.37,6.62-8.84,9.05 c-1.13,0.79-3.77,2.24-5.44,2.24c-0.1,0.1-0.2,0.2-0.31,0.3c0.09-0.1,0.18-0.2,0.27-0.3 C347.58,469.72,346.92,469.09,347.33,467.29z"/> <path fill="#2C3922" d="M317.64,333.55c1.65,3.78,1.69,8.96,2.27,13.06c1.14,8.02,1.96,16.23,4.11,24.06 c0.24,0.85,0.76,1.76,1.05,2.65c2.79-2.6,4.8-6.22,6.66-9.44c2.78-4.8,5.28-9.75,7.84-14.67c5.47-10.51,10.88-21.47,18.52-30.62 c7.75-9.28,19.46-14.44,30.26-19.34c8.46-3.84,17.11-7.36,25.91-10.34c-8.24,3.97-16.49,7.94-24.64,12.1 c-10.24,5.23-21.79,10.42-29.22,19.48c-7.56,9.22-13.17,19.94-19.11,30.22c-2.86,4.94-5.74,9.89-9.01,14.57 c-2.02,2.89-4.26,6.06-7.15,8.21c0.06,0.21,0.11,0.42,0.13,0.62c0.19,1.67,0.39,3.34,0.64,5.01c0.24,1.62,0.48,3.24,0.78,4.86 c0.73,3.93,1.54,7.84,2.46,11.73c1.98,8.39,4.89,16.46,8.05,24.46c2.98,7.56,6.12,14.98,8.18,22.87 c2.06,7.19,4.33,16.56,2.03,23.93c1.3-6.03-0.63-12.88-2.25-18.67c-1.61-5.76-3.68-11.39-5.94-16.93 c-2.82-6.89-6.24-13.56-8.65-20.62c-3.98-11.68-7-23.81-8.06-36.14c-3.79-9.78-3.9-21.16-4.84-31.5c-0.2-2.23-0.37-4.47-0.64-6.7 c-0.6-6.92-7.77-7.03-13.14-5.59c0.13-0.05,0.26-0.1,0.39-0.14C308.69,329.11,315.39,328.41,317.64,333.55z"/> <path fill="#2C3922" d="M414.23,352.46c0.89,5.76,1.8,11.51,2.66,17.28c-0.38,0.12-4.64-16.22-4.91-17.43 c-1.42-6.25-2.77-12.71-2.8-19.15c-0.03-6.93,1.57-13.97,3.16-20.68c1.7-7.18,3.71-14.34,6.3-21.26 c-2.28,13.33-5.45,26.67-6.44,40.17C411.69,338.32,413.18,345.63,414.23,352.46z"/> </g> <path fill="#2C3922" d="M590.01,424.68c-1.06-2.41-2.01-5.48-3.59-7.59c-0.7-0.94-1.71-1.66-2.43-2.6 c-4.41-6.09-5.6-13.9-5.08-21.29c0.13-1.84-0.53-1.95-1.53-3.44c-1.03-1.53-1.49-3.59-1.83-5.35c-0.48-2.47-0.68-4.97-0.81-7.48 c-0.04-0.74,0.43-3.88-0.08-4.44c-0.47-0.51-3.89-0.21-4.71-0.47c-1.59-0.51-2.89-1.73-3.74-3.14c-2.48-4.07-2.61-9.42-2.24-14.04 c-6.67,0-7.13-6.25-5.85-11.58c-0.09,0.22-0.15,0.39-0.19,0.53c-1.83,5.06-1.74,11.19,4.09,12.61c-1.02,8.06,0.83,17.38,9.53,18.9 c-0.14,5.73,0.17,13.16,4.12,17.51c-0.73,9.44,1.66,19.26,8.82,25.72c2.35,4.06,4.66,8.15,6.69,12.38c0.8,1.66,4.4,7.76,2.5,9.46 C596.76,438.36,591.06,427.06,590.01,424.68z"/> <path fill="#2C3922" d="M516.06,336.61c3.71-2.6,10.33-4.68,14.98-3.3c-0.37,3.18,0.6,7.08,4.64,6.41c2.26-0.24,4.09-1.71,6.37-2 c3.26-0.41,5.35,1.49,7.71,3.44c2.66,2.17,4.99,2.78,8.34,2.11c-4.94,0.03-6.52-2.78-9.99-5.78c-3.24-2.81-7.7-2.64-11.43-0.85 c-0.4,0.16-2.34,0.74-2.6-0.7c-0.19-1.07,1.03-3.67,0.7-4.53c-0.61-1.57-5.96-1.72-7.24-1.69c-3.64,0.08-7.35,1.12-10.59,2.76 c-4.63,2.12-7.05,6.44-9.23,10.88c-3.11,6.33-5.43,13-7.51,19.72c2.96-5.36,5.61-10.89,8.55-16.26 C510.65,343.36,512.75,338.92,516.06,336.61z"/> <path fill="#2C3922" d="M472.03,399.62c-0.98-4-1.3-8.25-1.27-12.36c0.02-4.06,0.16-9.09,2.59-12.55c0.93-1.32,2.59-2,3.95-2.78 c3.99-2.3,9.02-5.99,13.38-6.05c3,0.54,8.22,0.71,9.52-2.8c-1.47,2.45-4.97,2.15-7.35,1.7c-3.49-0.66-6.28-0.31-9.63,1.11 c-5.68,2.4-12.49,4.82-14.47,11.19c-2.41,7.75-2.2,19.66,1.86,26.9c3.83,6.53,10.94,12.01,16.66,16.79 c-3.67-4.54-7.48-8.97-11.06-13.58C474.29,404.71,472.79,402.7,472.03,399.62z"/> <path fill="#2C3922" d="M584.02,438.28c-3.15-1.1-6.27-2.3-9.38-3.54c-4.62-1.84-9.21-3.76-13.77-5.73 c-4.53-1.96-8.53-4.76-12.95-6.92c-2.48-1.22-5.26-2.49-7.78-0.75c-1.3,0.9-2.28,2.31-3.04,3.77c-4.14-3.22-11.15-7.62-15.17-4.04 c-10.5-7.36-26.02-12.47-34.66-0.3c3.14-3.36,6.61-5.64,11.3-5.83c7.45-0.29,14.86,3.76,20.77,7.91c0.97,0.67,1.89,1.4,2.82,2.13 c0.38,0.3,0.93-0.82,1.24-1.11c0.69-0.8,1.44-1.04,2.5-0.92c4.75,0.56,8.98,4.53,12.46,7.53c0.97-2.34,1.9-5.37,4.16-6.78 c0,0-0.01,0.01-0.01,0.01c1.67,0.87,3.91,1.2,5.69,2.14c1.18,0.62,2.34,1.27,3.51,1.91c3.18,1.74,6.39,3.27,9.8,4.54 c5.86,2.19,11.79,4.26,17.82,5.96c2.8,0.79,5.61,1.53,8.47,2.04c1.59,0.29,4.35,1.06,5.84,0.08 C591.22,441.52,586.33,439.09,584.02,438.28z"/> <path fill="#2C3922" d="M570.38,417.44c-7.76-8.42-15.67-16.8-22.82-25.75c-11.12-13.91-27.72-23.01-44.58-28.25 c9.31,4.4,18.6,9.52,26.89,15.65c6.11,4.52,11.09,9.59,15.81,15.48c7.58,9.11,15.63,17.78,24.11,26.06 c4.01,3.92,8.08,7.78,12.28,11.49c3.19,2.81,6.48,6.04,10.25,8.07c-3.72-2.71-6.81-6.57-9.95-9.89 C578.33,426.04,574.35,421.75,570.38,417.44z"/> <path fill="#2C3922" d="M487.01,412.19c-0.65-7.76-0.77-15.18,0.91-22.85c1.94-8.86,6.36-17.67,12.08-24.7 C486.05,375.72,482.04,395.79,487.01,412.19z"/> <path fill="#2C3922" d="M502.55,366.61c-0.19,0.14,16.92,23.49,18.27,25.51c6.16,8.43,11.5,17.32,15.92,26.76 c-1.75-10.51-7.11-20.06-13.19-28.67C517.54,381.66,510.6,373.32,502.55,366.61z"/> <path fill="#2C3922" d="M527.64,350.63c8.4-2.77,17.03-3.9,25.84-3.14c-8.79-2.63-17.87-1.67-26.52,1.03 c-4.9,1.66-9.6,3.75-14.09,6.33c-1.97,1.13-3.9,2.35-5.78,3.63c-0.5,0.33-3.72,2.06-3.77,2.4c3.83-0.72,7.7-3.46,11.23-5.07 C518.82,353.85,523.17,352.05,527.64,350.63z"/> <path fill="#2C3922" d="M507.79,361.47c10.63,3.38,21.42,6.27,32.23,9.01c2.06,0.52,27.98,6.69,27.96,6.87 c0.07-0.55-10.11-3.76-10.84-4.01c-5.83-2.03-11.73-3.69-17.69-5.28C529.02,365.28,518.45,363.02,507.79,361.47z"/> </g> <g id="Warstwa_14"> <g> <path fill="#C6C6C6" d="M468.08,490.13c0.34,10.76-27.38,12.53-55.86,13.43c-28.48,0.9-61.25-3.24-61.59-13.99 c-0.34-10.76,31.87-24.06,60.35-24.96C439.47,463.71,467.74,479.37,468.08,490.13z"/> <g> <path opacity="0.2" fill="#1D1D1B" d="M468.08,490.13c0.34,10.75-27.38,12.53-55.86,13.43c-25.69,0.81-54.85-2.47-60.58-11.01 c12.23,3.56,31.17,4.88,48.53,4.33c28.49-0.9,56.21-2.67,55.87-13.43c-0.12-3.65-3.45-7.87-8.92-11.81 C459.41,476.94,467.89,484.27,468.08,490.13z"/> <path opacity="0.2" fill="#FFFFFF" d="M453.8,474.93c-11.04-4.6-25.13-7.76-39.28-7.32c-28.12,0.9-59.68,12.47-63.8,22.73 c-0.05-0.25-0.08-0.51-0.09-0.77c-0.34-10.76,31.87-24.06,60.35-24.96C426.95,464.1,442.85,468.8,453.8,474.93z"/> <path opacity="0.2" fill="#FFFFFF" d="M446.21,479.55c0,2.52-6.34,1.09-14.17,1.09c-7.82,0-14.17,1.43-14.17-1.09 c0-2.53-0.32-6.91,7.5-6.91C433.2,472.65,446.21,477.03,446.21,479.55z"/> </g> </g> <g> <path fill="#C6C6C6" d="M524.61,495.69c0.18,8.25-14.55,9.61-29.68,10.3c-15.13,0.69-32.54-2.48-32.72-10.73 s16.93-18.45,32.06-19.14C509.41,475.43,524.43,487.44,524.61,495.69z"/> <g> <path opacity="0.2" fill="#1D1D1B" d="M524.61,495.69c0.18,8.24-14.55,9.61-29.68,10.3c-13.65,0.62-29.14-1.89-32.18-8.44 c6.5,2.73,16.56,3.74,25.78,3.32c15.14-0.69,29.86-2.05,29.68-10.3c-0.06-2.8-1.83-6.04-4.74-9.05 C520,485.58,524.51,491.2,524.61,495.69z"/> <path opacity="0.2" fill="#FFFFFF" d="M517.02,484.04c-5.86-3.53-13.35-5.95-20.87-5.61c-14.94,0.69-31.7,9.56-33.89,17.43 c-0.03-0.19-0.04-0.39-0.05-0.59c-0.18-8.25,16.93-18.45,32.06-19.14C502.76,475.73,511.2,479.34,517.02,484.04z"/> <path opacity="0.2" fill="#FFFFFF" d="M512.99,487.58c0,1.94-3.37,0.84-7.53,0.84c-4.16,0-7.53,1.1-7.53-0.84 c0-1.94-0.17-5.29,3.98-5.29S512.99,485.64,512.99,487.58z"/> </g> </g> </g> <g id="Warstwa_3_kopia"> <path fill="#DBC4A2" d="M113.03,504.95L113.03,504.95c-0.5-0.18-0.99-0.36-1.47-0.56c-2.1-0.84-4.12-1.84-6.06-3.02 c-0.94-0.57-1.83-1.2-2.66-1.89c-0.4-0.32-0.79-0.65-1.16-1c-0.02,0.02-0.03,0.04-0.05,0.06c-0.79,0.65-1.92,0.9-2.95,1.11 c-1.9,2.28-3.76,4.98-4.48,7.82c0.89,0.46,1.89,0.84,2.97,1.14c1.85,0.53,3.94,0.83,6.15,0.83c3.82,0,7.27-0.88,9.74-2.31 c0.78-0.44,1.47-0.94,2.03-1.49C114.4,505.43,113.71,505.2,113.03,504.95z"/> <path fill="#DBC4A2" d="M83.14,489.1c0.32,0.5,0.65,0.98,0.99,1.46c-0.14,0.17-0.27,0.35-0.39,0.53c-0.37,0.51-0.72,1.03-1.06,1.55 c-0.83-0.49-1.64-1.04-2.42-1.65c-8.83-6.79-14.82-19.99-14.82-35.15c0-7.47,1.45-14.46,3.99-20.44c0.86-2.07,1.86-4.02,2.99-5.82 c-0.29,2.68-0.49,5.36-0.61,8.05c-0.55,12.22,0.54,24.63,4.28,36.31c1.57,4.9,3.64,9.65,6.34,14.03 C82.66,488.35,82.9,488.73,83.14,489.1z"/> <path fill="#B2B2B2" d="M93.03,481.05c-0.44,0.37-0.87,0.76-1.29,1.15c-0.18-1.21-0.3-2.43-0.36-3.65c0.43-0.38,0.85-0.74,1.29-1.1 C92.73,478.65,92.85,479.86,93.03,481.05z"/> <g> <g> <path fill="#DBC4A2" d="M296.53,587.28c1.03,0.08,2.09,0,3.15-0.26c5.36-1.32,8.64-6.74,7.32-12.1 c-5.01-20.39-29.04-25.43-36.94-27.08c-16.52-3.46-37.36-4.33-59.44-5.25c-30.97-1.29-66.08-2.76-90.22-12.2 c-15.43-6.04-24.56-13.08-25.07-19.32c-0.66-8.2,12.23-18.72,18.22-22.26c4.75-2.81,6.33-8.95,3.51-13.7 c-2.81-4.75-8.94-6.33-13.7-3.51c-3.06,1.81-29.81,18.32-27.97,41.09c1.2,14.79,13.88,27.01,37.72,36.33 c27.25,10.66,64.13,12.2,96.67,13.56c34.84,1.45,74.34,3.1,77.78,17.13C288.65,583.99,292.34,586.96,296.53,587.28z"/> </g> </g> <path fill="#DBC4A2" d="M221.15,518.53c-1,3.32-4.58,5.84-12.17,4.49c-1.08,0.83-2.61,1.45-4.68,1.74 c-11.13,1.56-15.74-1.37-31.08-1.37c-11.26,0-62.16-5.21-67.94-9.81c-5.53-4.41,4.44-8.27,11.53-10.31h0.01 c8.02,1.51,16.42,1.96,23.37,2.36c25.07,1.44,40.32-3.12,52.95-13.89c0,0,0,0,0.01,0C215.49,488.66,239.46,511.75,221.15,518.53z"/> <path fill="#B2B2B2" d="M267.98,476.55c2.11-0.29,4.2-0.36,6.23-0.24L267.98,476.55z"/> <path fill="none" d="M279.91,506.61c-0.14-0.01-0.27-0.04-0.41-0.06"/> <path fill="#DBC4A2" d="M269.08,272.92c20.58,0.22,26.48-42.9,18.86-42.95c-10.82-0.08-37.71,17.52-37.71,17.52 S245.64,272.67,269.08,272.92z"/> <path fill="#DBC4A2" d="M291.66,502.06c-0.99,3.26-4.45,5.74-11.75,4.55c-1.1,0.93-2.76,1.55-5.1,1.67 c-30.48,1.59-41.68-31.26-44.8-42.34c0,0-1.33-7.09-7.63-8.44l-0.63-0.35c-1.87,12.87-7.91,25.61-17.89,35.73 c-1.48,1.5-2.98,2.91-4.52,4.22c-0.01,0-0.01,0-0.01,0c-12.63,10.77-27.88,15.33-52.95,13.89c-6.95-0.4-15.35-0.85-23.37-2.36H123 c-7.89-1.48-15.4-3.98-20.79-8.47c-4.45-3.7-8.97,2.92-10.23-0.82c-0.08-0.07-2.26-1.98-2.34-2.05c-5.16-4.24-9.8-12.3-12.62-18.82 c-19.77-45.73,3.86-133.65,65.28-149.98c18.1-4.82,29.1-6.42,39.64-9.4l0.26-0.35c2.96-6.68,2.87-13.65,1.23-15.79 c-14.5-18.9-10.01-45.36,3.69-63.05c3.75-4.85,8.18-9.02,13.12-12.21c0,0,0-0.01,0.01-0.01c5.67-3.68,12-6.04,18.67-6.56 c30.51-2.4,52.28,13.52,52.28,13.52s0.17,0.22,0.46,0.62c2.48,3.34,14.13,19.06,14.62,19.98c0.29,0.54,0.61,1.08,0.96,1.62 c3.17,4.91,8.83,9.77,14.68,12.12c3.18,1.27-0.18,30.98-18.2,40.41c-14.12,7.38-22.24,20.15-23.59,27.72 c-0.37,2.09-0.23,3.79,0.45,4.86c0.2,1.17,7.83,14.33,9.77,31.02c0.98,8.47,0.49,17.84-3.18,27.02c0,0-4.91,19.75-4.29,39.03 c0.13,4.51,0.56,9.14,1.43,13.73c1.28,6.8,8.24,20.39,9.89,23.53C293.7,477.44,308.24,495.92,291.66,502.06z"/> <line fill="none" x1="93.97" y1="487.27" x2="94.26" y2="488.15"/> <path fill="none" d="M274.56,476.97c-0.01-0.02-0.14-0.26-0.35-0.66"/> <path fill="#DBC4A2" d="M204.1,223.98c0,0-20.65-19.15-23.51-14.59c-2.86,4.56-1.09,27.81,3.65,32.53 C184.23,241.91,196.7,235,204.1,223.98z"/> <path fill="#DBC4A2" d="M330.22,330.72c3.54,5.22-3.8,17.03-9.95,11.13c2.46,2.63,1.74,7.78-3.64,10.41 c-8.51,4.17-8.12-2.86-12.39-1.73c-3.77,0.99-31.8,17.56-33.88,22.47c-1.94-16.69-9.57-29.85-9.77-31.02 c-0.68-1.07-0.82-2.77-0.45-4.86c2.93-2.27,23.46-17.85,39.94-21.41C318.34,311.77,344.26,315.7,330.22,330.72z"/> </g> <g id="Warstwa_9"> <path fill="#553D43" d="M296.27,266.55c0,0,1.02,8.46,2.14,10.69s3.76,3.65,3.99,2.14s0.47-9.43,0-9.91 S296.27,266.55,296.27,266.55z"/> <path fill="#1D1D1B" d="M292.98,281.2c-5.45,9.66-11.15,19.18-17.05,28.56c-4.43,7.05-8.99,14.03-13.87,20.77 c-4.1,5.67-8.4,11.59-13.98,15.9c5.61-4.44,9.88-10.54,13.96-16.35c5.33-7.58,10.26-15.43,15.05-23.35 c3.87-6.41,7.64-12.88,11.32-19.4c1.05-1.85,2.08-3.71,3.11-5.57c0.18-0.33,0.36-0.65,0.54-0.98 C292.45,280.09,293.39,280.79,292.98,281.2z"/> <path fill="#1D1D1B" d="M290.45,279.56c-6.36,7.96-12.87,15.8-19.51,23.52c-8.96,10.41-18.07,20.86-28.54,29.8 c10.86-9.54,20.23-20.71,29.46-31.8c4.61-5.54,9.14-11.15,13.61-16.79c1.2-1.51,2.39-3.03,3.58-4.55c0.2-0.26,0.4-0.52,0.6-0.78 C290.07,278.42,290.91,279.1,290.45,279.56z"/> <path fill="#A46350" d="M220.67,221.01c0,0-19.02,3.37-26.28,11.13s-16.9,25.16-17.73,28.44s16.5-26.18,34.24-28.83 c0,0-20.31,14.26-21.89,37.81c0,0,22.39-30.51,39.14-35.66c0,0-11.44,15.92-13.1,24.05c0,0,17.08-24.38,29.35-25.71 s26.09,3.6,26.09,3.6l0.71-1.2l-5.97-3.61c0,0-11.67-5.31-18.02-6.5S228.78,218.23,220.67,221.01z"/> <path fill="#A46350" d="M148.89,326.8c-0.24,1.9-3.07,6.08,3.37,13.39c5.52,6.28,31.08,15.71,34.34,16.56 c-5.02-0.05-30.36,1.83-40.67-2.34c-7.08-2.87-15.16-6.89-17.96-12c-0.97-1.77-1.84-3.96-2.21-5.95c-0.02-0.09-0.28-1.32-0.12-1.38 C125.64,335.1,145.95,328.26,148.89,326.8z"/> <path fill="#A46350" d="M113.22,343.32c-2.63,2.6,6.96,11.48,8.6,12.75c9.66,7.48,31.62,16.7,43.83,11.71 c-15.23,6.22-37.67,13.87-53.75,6.95c-5.98-2.57-14.24-10.4-12.59-17.69C99.32,357.04,113.18,343.37,113.22,343.32z"/> <path fill="#A46350" d="M86.11,377.02c0,0,4.39,17.44,32.53,17.16c0,0-16.89,9-27.32,7.11s-11.12-8.51-11.58-10.22 S86.11,377.02,86.11,377.02z"/> <path fill="#A46350" d="M266.23,333.29c0,0,7.29,3.67,8.33,15.75c0,0,4.54-19.34,1.99-22.24L266.23,333.29z"/> <path fill="#A46350" d="M281.96,323.92c0,0,6.25,7.11,4.23,16.59c0,0,5.98-15.53,2.94-19.57L281.96,323.92z"/> <path fill="#1D1D1B" d="M295.54,282.13c-4.29,12.07-8.99,24.05-14.19,35.76c-5.49,12.36-11.27,24.68-19.47,35.5 c8.44-11.44,14.39-24.57,19.81-37.65c3.06-7.38,6-14.82,8.75-22.32c1.17-3.17,2.31-6.34,3.42-9.53c0.23-0.65,0.45-1.3,0.67-1.95 C294.78,281.25,295.86,281.49,295.54,282.13z"/> <path fill="#A46350" d="M199.24,405.44c0,0,4.27,23.78-17.27,30.46c0,0,29.83-5.31,33.26-15.23 C215.22,420.67,202.13,406,199.24,405.44z"/> <path fill="#A46350" d="M221.71,438.97c0,0-13.75,15.16-39.74,13.52c0,0,22.82,13.9,40.41,5.01L221.71,438.97z"/> <path fill="#A46350" d="M264.1,417.19c0,0-18.22,9.34-24.36,21.78c0,0,12.77-7.68,22.14-6.96L264.1,417.19z"/> <path fill="#A46350" d="M262.99,441.45c0,0-10.69-0.09-19.62,10.51c0,0,15.21-5.04,20.43-2.24L262.99,441.45z"/> <path fill="#A46350" d="M273.13,548.5c0,0-8.94,9.53-9.03,18.54l-12.18-1.79c0,0,2.59-21.77,10.61-20.2L273.13,548.5z"/> <path fill="#A46350" d="M238.63,544.97c0,0-7.3,8.46-6.44,18.66l-14.21-0.72c0,0,1.53-18.55,10.32-19.54L238.63,544.97z"/> <path fill="#A46350" d="M204.6,542.23c0,0-7.76,8.51-7.79,18.24l-12.87,0.84c0,0,0.1-15.47,6.88-18.14S204.6,542.23,204.6,542.23z"/> <path fill="#1D1D1B" d="M283.88,262.38c-0.21,0.29,0.89,4.16-0.91,6.27c-1.51,1.77-5.64-0.73-5.64-0.73L283.88,262.38z"/> </g> <g id="Warstwa_10"> <path opacity="0.2" fill="#553D42" d="M138.81,400.92c0,0,33.4-13.95,58.12,1.38c19.04,11.81,24.23,34.06,25.47,41.74 s-4.17,43.36-26.2,55.18c-22.41,12.03-33.3,12.94-48.55,11.66s-37.72-5.09-46.26-11.66c0,0-6.72,5.96-6.03,11.47 s-2.09-15.47-12.76-21.49c0,0,1.94-34.16,19.17-39c0,0-12.33,25.31,7.17,38.4c12.3,8.26,49.62,7.01,69.41-13.09 C212.28,441.02,179.63,401.29,138.81,400.92z"/> <path opacity="0.2" fill="#553D42" d="M218.15,428.08c0,0,6,2.06,12.08-12.28c0,0-3.81,12.86-10.58,16.63 c0,0,7.22-4.34,13.29-10.36c0,0-3.53,11.07-8.02,14.6c-3.07,2.41,6.58,19.1,9.31,26.16s5.59,21.62,20.86,33.06 c8.85,6.63,24.97,10.99,21.15-0.84c0,0,8.69-0.55,8.22,5.66c0,0,8.72,0.12,0.91-8.93c0,0,5.95-2.15,8.4,2.99 c0,0,7.37-2.07,2.24-8.02c0,0,5.52,7.14,1.89,10.72s-3.98,3.33-5.11,3.97s-1.01,2.34-3.02,3.54s-6.92,2.43-8.76,1.73 c0,0-3.33,1.89-7.95,1.65s-19.54-2.84-26.1-10.89s-14.25-23.5-16.33-29.37s-6.14-10.42-7.59-10.32"/> <path opacity="0.2" fill="#553D42" d="M213.28,495.25c-0.49-0.11,12.85,9.14,10.45,14.19c-1.62,3.42-2.85-1.91-8.05-0.92 c0,0,4.26,5.17,0.73,8.7c-2.53,2.53-3.78,2.23-4.79,1.68s-0.82-4.39-2.64-5.43c0,0,0.7,4.48-2.67,5.72s-38.79-1.17-49.08-1.97 s-26.09-5.77-29.19-7.78s-17.13-5.3-17.77-4.48s-7.48,2.8-6.61,4.48s-5.5,4.62,14.31,9.09s51.85,5.43,58.64,5.38 s23.83,2.44,27.12,1.3s5.7-1.71,5.96-1.97c0,0,2.79,1.22,5.98-0.14s6.51-4.71,6.56-4.96s3.07-0.12,4.44-2.86s1.28-6.28-0.31-8.74 S218.73,496.48,213.28,495.25z"/> <path fill="#553D42" d="M219.04,430.42c1.1-0.45,2.11-1.35,2.99-2.13c1.23-1.08,2.37-2.29,3.35-3.6c1.87-2.22,2.97-4.94,4.24-7.5 c-0.46,2.84-1.55,5.52-3.24,7.85c-1.02,1.39-2.26,2.58-3.63,3.62C221.7,429.38,220.36,430.29,219.04,430.42z"/> <path fill="#553D42" d="M219.47,432.46c2.26-1.35,4.5-2.77,6.58-4.38c2.24-1.74,4.39-3.64,6.67-5.33c-1.63,2.3-3.6,4.23-5.83,5.95 C224.65,430.27,222.19,431.88,219.47,432.46z"/> <path opacity="0.2" fill="#553D42" d="M82.35,526.66c-0.68-1.53,25.13,23.42,72.65,26.84s92.31,2.66,112.44,7.82 s34.31,16.12,29.11,25.96c0,0-4.98-0.82-6.09-2.15s-3.33-8.22-5.55-9.77s-16.2-10.63-38.42-10.66s-89.94-5.59-96.78-6.69 S91.64,547.46,82.35,526.66z"/> <path opacity="0.2" fill="#553D42" d="M271.21,371.75c0,0,27.73-19.57,31.11-20.43s2.88-0.22,6.27,1.02s8.23,0.74,10.13-1.42 s3.39-6.1,1.54-9.08c0,0,3.97,2.92,7.33,0s4.37-6.9,3.45-8.96s-0.92-2.07-0.92-2.07s2.54-4.48,3.31-5.98s-0.05-5.22-1.41-6.21 c0,0,1.49,7.82-4.95,9.92c0,0,1.11,8.21-9.99,9.37c0,0-7.69,4.49-14.62,4.05s-34.82,15.45-35.46,15.84S273.12,369.52,271.21,371.75 z"/> <path opacity="0.2" fill="#553D42" d="M302.1,280.96c0,0-42.62,44.95-77.77,49.77c0,0,16.62-0.02,27.59-5.6 c0,0-14.56,14.18-31.21,18.96c0,0,41.18-10.2,43.09-14.58s5.16-12.18,12.33-15.23s13.94-6.94,16.41-9.92 S301.79,282.54,302.1,280.96z"/> <path opacity="0.2" fill="#553D42" d="M181.97,300.92c0,0,13.72,19.15,36.19,13.36c0,0-25.88,6.12-34.54,2.4 c0,0,1.02-3.47,0.91-7.27S181.97,300.92,181.97,300.92z"/> <path opacity="0.2" fill="#FFFFFF" d="M250.77,247.19c0,0,32.15-18.83,37.16-17.22s-16.68,32.18-28,37.83c0,0,2.74-2.61,4.33-7.82 c0,0-1.01,4.48-11.73,5.86c0,0,6.28-3.69,7.2-6.73c0,0-3.33,3.54-13.47,1.94C246.26,261.05,243.35,256.38,250.77,247.19z"/> <path opacity="0.2" fill="#FFFFFF" d="M182.43,208.67c0,0,21.42,14.65,22.29,15.87s-11.15,8.02-11.15,8.02 S184.83,209.52,182.43,208.67z"/> <path opacity="0.2" fill="#FFFFFF" d="M181.95,319.1c-2.45,4.12-5.55,8.41-9.75,10.88c3.18-0.64,6.39-1.19,9.58-1.79 c-15.04,5.04-28.96,12.79-41.45,22.53c-14.78,11.53-30.56,23.38-41.85,38.54c-14.82,19.89-21.09,44.69-24.64,68.87 c-0.5,3.39-1.13,6.95-1.01,10.4c0,0-7.48-47.71,6.9-76.18s26.67-49.55,46.69-57.65s56.6-15.21,56.06-15.4"/> </g> <g id="Warstwa_4_kopia"> <path fill="#553D43" d="M307.41,579.09c-0.82,4.05-3.85,6.83-7.72,7.93c4.61-1.54,7.93-5.73,7.22-10.78 c-0.8-5.63-4.44-11.02-8.51-14.82c-8.86-8.25-21.08-11.08-32.66-13c-12.2-2.02-24.63-2.86-36.97-3.51 c-12.64-0.67-25.3-1.06-37.94-1.73c-12.85-0.69-25.71-1.63-38.45-3.49c-12.54-1.83-25.02-4.56-36.68-9.64 c-5.53-2.4-11.05-5.25-15.67-9.17c-3.42-2.92-6.26-6.53-6.14-11.19c0.02-0.75,0.13-1.49,0.31-2.22c0.82-3.23,3.11-6.28,5.27-8.74 c-1.07-1.13-2.05-2.34-2.92-3.65c-0.68-1.01-1.3-2.07-1.85-3.19c-1.49-3.03-2.46-6.31-2.96-9.69c-0.18-1.21-0.3-2.43-0.36-3.65 c-0.36-7.1,1.25-14.39,4.5-20.52c2.9-5.48,7.42-10.31,13.95-10.58c-11.09,0.89-16.03,14.36-17.01,23.84 c-0.21,2.03-0.26,4.1-0.15,6.16c0.06,1.2,0.18,2.41,0.36,3.6c0.73,4.9,2.44,9.61,5.26,13.56c0.7,1,1.49,1.95,2.34,2.84 c0.69,0.72,1.42,1.4,2.21,2.03c0.83,0.69,1.72,1.32,2.66,1.89c1.94,1.18,3.96,2.18,6.06,3.02c0.48,0.2,0.97,0.38,1.46,0.56h0.01 c0.68,0.25,1.37,0.48,2.06,0.69c8.19,2.61,17.14,3.24,25.55,3.74c12.31,0.72,24.84,1.14,36.85-2.21 c9.38-2.62,17.79-7.81,24.66-14.64c0.38-0.37,0.76-0.75,1.12-1.14c7.83-8.16,13.5-18.47,16.1-29.39 c2.74-11.49,2.11-24.02-2.74-34.87c-4.95-11.07-14-19.28-24.7-24.72c-11.31-5.75-23.93-7.82-36.48-5.86 c-11.16,1.73-21.71,6.3-31.13,12.45c-2.66,1.74-5.31,3.59-7.68,5.71c6.88-6.67,15.68-11.81,24.5-15.4 c11.51-4.69,24.05-6.44,36.32-4.08c6.18,1.19,12.42,3.42,17.9,6.53c5.39,3.07,10.48,6.46,14.78,10.98 c8.19,8.61,12.67,20.21,13.47,31.97c0.29,4.35,0.1,8.7-0.55,12.97c0.01,0.03,0,0.06-0.01,0.09c-1.9,12.68-7.7,24.7-16.32,34.22 c-0.39,0.44-0.8,0.88-1.22,1.31c-3.38,3.56-7.19,6.74-11.33,9.43c-10.23,6.66-22.22,9.26-34.29,9.72 c-6.44,0.25-12.88-0.09-19.3-0.54c-6.18-0.44-12.37-1.1-18.45-2.33c-3.03-0.62-6.11-1.39-9.08-2.45c-0.91-0.31-1.81-0.66-2.69-1.04 c-0.5-0.2-0.99-0.43-1.48-0.66c-1.25-0.59-2.47-1.25-3.63-1.99c-1.27-0.81-2.48-1.69-3.6-2.66c-1.99,2.32-3.78,4.89-4.49,7.83 c-0.18,0.79-0.29,1.6-0.31,2.45c0.08,1.97,1.9,4.41,3.42,5.96c2.08,2.13,4.56,3.88,7.1,5.42c5.31,3.23,11.09,5.73,16.95,7.75 c12.11,4.19,24.87,6.26,37.57,7.71c24.97,2.85,50.14,2.84,75.2,4.49c12.53,0.83,25.04,1.97,37.23,5.15 c10.86,2.84,22.27,7.8,28.77,17.43c1.4,2.04,2.56,4.29,3.34,6.64C307.25,574.04,307.92,576.53,307.41,579.09z"/> <path fill="#553D43" d="M260.59,341.97c1.21,2.88,2.9,5.58,4.2,8.43c1.3,2.87,2.47,5.81,3.46,8.81c1.95,6.06,3.33,12.28,3.7,18.64 c0.43,7.7-0.7,15.1-3.3,22.37c-0.04,0.11-0.08,0.22-0.12,0.33c0.05-0.16,0.14-0.53-0.02,0.17c-0.08,0.36-0.16,0.72-0.24,1.09 c-0.16,0.73-0.32,1.47-0.46,2.2c-0.16,0.8-0.31,1.6-0.46,2.4c-0.21,1.11-0.4,2.23-0.59,3.35c-0.71,4.23-1.31,8.47-1.76,12.74 c-0.58,5.45-0.76,10.86-0.83,16.33c-0.06,4.33,0.53,8.63,1.02,12.92c0.33,2.9,1.31,5.8,2.34,8.53c2.03,5.43,4.28,10.78,6.75,16.02 c-3.21-5.32-6.25-10.85-8.61-16.6c-1.1-2.66-2.08-5.39-2.55-8.24c-0.81-4.92-1.45-9.82-1.51-14.81 c-0.07-5.64,0.19-11.22,0.75-16.83c0.54-5.51,1.44-10.99,2.57-16.4c0.97-4.67,2.86-9.05,3.72-13.75c1.27-6.9,1.09-14,0.04-20.91 c-0.69-4.54-1.78-9.02-3.15-13.4c-0.71-2.26-1.5-4.5-2.33-6.72C262.35,346.41,261.28,344.24,260.59,341.97 C261.07,343.13,260.95,343.18,260.59,341.97z"/> <path fill="#553D43" d="M181.97,319.29c-0.2,0.05-0.39,0.1-0.59,0.14h-0.01c-8.75,2.12-17.53,4.14-26.21,6.53 c-6.05,1.66-12.21,3.05-18.11,5.21c-5.91,2.16-11.5,5.13-16.7,8.67C99.88,353.78,86.32,376.4,78.8,399.6 c-3.15,9.74-5.32,19.8-6.38,29.98c-0.29,2.68-0.49,5.36-0.61,8.05c-0.55,12.22,0.54,24.63,4.28,36.31 c1.57,4.9,3.64,9.65,6.34,14.03c0.23,0.38,0.47,0.76,0.71,1.13c0.32,0.5,0.65,0.98,0.99,1.46c-0.14,0.17-0.27,0.35-0.39,0.53 c-0.39-0.49-0.77-1-1.14-1.52c-0.23-0.32-0.45-0.64-0.66-0.96c-2.98-4.33-5.34-9.1-7.16-14.03c-4.26-11.61-5.69-24.15-5.44-36.46 c0.02-0.91,0.04-1.81,0.09-2.72c0.97-24.47,8.65-49.1,22.12-69.54c6.8-10.31,15.33-19.69,25.52-26.75 c5.23-3.62,10.88-6.64,16.83-8.91c5.8-2.22,11.91-3.45,17.93-4.85c9.78-2.27,19.66-4.26,29.56-5.96 C181.58,319.36,181.78,319.32,181.97,319.29z"/> <path fill="#553D43" d="M202.15,492.53c1.13,0.21,2.26,0.46,3.36,0.77c4.18,1.14,8.18,2.93,11.85,5.41 c3.74,2.52,7.79,5.92,9.21,10.38c0.7,2.19,0.41,4.41-1.04,6.23c-0.88,1.1-2.02,1.89-3.23,2.58c-0.38,0.22-0.76,0.42-1.15,0.63 c0.37-0.12,0.74-0.24,1.1-0.38c1.49-0.54,2.89-1.22,4.02-2.38c1.67-1.71,2.31-4.01,1.92-6.36c-0.82-4.82-4.71-8.72-8.49-11.5 c-3.88-2.85-8.32-4.87-12.97-5.92c-1.14-0.26-2.3-0.46-3.46-0.6L202.15,492.53z"/> <path fill="#553D43" d="M214.86,508.23c5.45-0.42,8.72,6.22,7.14,10.9c-1.95,5.4-8.43,5.46-13.01,3.89 c3.79-0.14,9.31-0.01,11.02-4.26C221.65,514.66,219.1,509.39,214.86,508.23z"/> <path fill="#553D43" d="M111.56,504.39c-0.91,0.31-1.8,0.65-2.67,1.04c-0.64,0.27-1.26,0.57-1.87,0.89 c-1.81,0.94-4.37,2.54-4.17,4.93c0.1,1.26,1.03,2.5,2.07,3.2c2.18,1.49,4.9,2.13,7.42,2.78c3.01,0.78,6.05,1.41,9.1,1.97 c12.78,2.37,25.76,3.88,38.71,4.9c3.19,0.25,6.37,0.5,9.57,0.61c3.16,0.12,6.33,0.01,9.5,0.16c6.24,0.3,12.52,1.52,18.78,1.29 c3.59-0.14,8.84-0.22,11.71-2.91c0.09-0.09,0.18-0.17,0.26-0.26c0.3-0.31,0.57-0.66,0.8-1.04c2.76-4.51-1.6-10.07-6.24-10.65 c2.83,0.62,5.19,2.9,5.91,5.73c0.72,2.82-0.69,5.23-3.35,6.26c-1.43,0.56-2.84,0.67-4.32,0.77c-6.11,0.45-11.98-0.57-18.03-1.3 c-6.42-0.77-12.89-0.71-19.34-1.18c-6.46-0.47-12.92-1.13-19.37-1.81c-6.42-0.69-12.85-1.44-19.25-2.35 c-6.1-0.86-12.4-1.61-18.3-3.46c-1.35-0.42-3.67-1.16-3.93-2.84c-0.21-1.31,1.4-2.45,2.31-3.08c1.1-0.76,2.29-1.39,3.51-1.95 c0.09-0.05,0.19-0.09,0.28-0.13c0.78-0.35,1.57-0.69,2.37-1.01h0.01L111.56,504.39z"/> <path fill="#553D43" d="M267.98,476.54c8.67-1.86,18.1,0.2,25.04,5.8c3.5,2.82,6.87,7.04,6.59,11.79 c-0.26,4.42-4.17,6.73-7.95,7.92c3.18-1.72,6.72-4.17,6.47-8.26c-0.21-4.41-3.86-8.02-7.16-10.52 C284.36,478.28,276.12,476.45,267.98,476.54z"/> <path fill="#553D43" d="M285.37,491.76c5.45-0.42,8.72,6.22,7.14,10.9c-1.95,5.4-8.43,5.46-13.01,3.89 c3.79-0.14,9.31-0.01,11.02-4.26C292.16,498.18,289.61,492.91,285.37,491.76z"/> <path fill="#553D43" d="M275.03,494.82c5.13,0.33,9.67,7.53,5.99,11.86c-1.87,2.2-4.83,2.58-7.53,2.71c-2.76,0.13-5.52,0-8.25-0.5 c-8.91-1.64-16.56-6.74-22.28-13.65c-5.19-6.27-8.88-13.68-11.46-21.38c-0.65-1.94-1.22-3.9-1.73-5.88 c-0.43-1.67-0.7-3.38-1.42-4.96c-0.72-1.59-1.82-3.27-3.33-4.21c-0.83-0.6-1.71-0.92-2.66-1.3c1.68,0.41,3.07,0.83,4.43,1.97 c1.92,1.59,3.28,3.93,3.9,6.33c1.07,2.63,2.09,5.87,3.28,8.68c1.22,2.88,2.59,5.71,4.11,8.45c2.95,5.32,6.53,10.39,11.03,14.52 c3.44,3.15,7.32,5.7,11.67,7.42c4.25,1.68,8.79,2.31,13.34,2.36c3.22,0.03,6.94-1.05,6.85-4.92 C280.92,498.99,278.31,495.54,275.03,494.82C276.88,494.94,276.84,495.22,275.03,494.82z"/> <path fill="#553D43" d="M250.22,247.49c8.71-6.58,18.19-12.61,28.35-16.69c2.25-0.91,4.54-1.55,6.91-2.07 c0.61-0.13,1.82-0.35,2.45-0.22c0.58,0.12,1.06,0.12,1.62,0.39c1.15,0.56,1.86,1.77,2.27,2.93c1.01,2.91,0.78,6.25,0.38,9.25 c-0.96,7.21-3.62,14.37-7.69,20.41c-3.72,5.51-8.81,10.01-15.43,11.44c7.91-3.02,13.03-10.14,16.25-17.7 c1.85-4.34,3.19-8.92,3.85-13.59c0.32-2.28,0.5-4.61,0.23-6.91c-0.1-0.83-0.36-3.39-1.59-3.3c0.29,0.01-0.32,0.04-0.38,0.05 c-0.39,0.03-0.77,0.06-1.16,0.09c-1.3,0.09-2.64,0.51-3.88,0.87c-4.35,1.27-8.53,3.1-12.62,5.03 C263.15,240.6,256.68,244.04,250.22,247.49z"/> <path fill="#553D43" d="M271.21,234.64c-3.94-2.63-8.42-4.65-12.82-6.37c-5.68-2.22-11.53-3.79-17.51-4.93 c-6-1.14-12.33-1.56-18.41-1.16c-4.41,0.29-8.57,0.82-12.81,2.33c-11.35,4.07-20.43,13.37-26.23,23.71 c-5.99,10.67-8.87,23.27-7.01,35.45c0.75,4.89,2.31,9.93,4.87,14.18c0.95,1.69,2.17,3.22,3.09,4.92c0.94,1.75,1.05,3.84,0.96,5.79 c-0.22,4.76-1.86,9.56-4.47,13.54c-2.23,3.4-5.16,5.81-8.65,7.83c4.04-2.76,7.23-6.16,9.23-10.69c1.21-2.73,1.93-5.62,2.24-8.59 c0.14-2.45,0.3-5.05-0.99-7.23c-0.03-0.04-0.02-0.03,0.02,0.03c-1.39-2.04-3.02-4.11-4.2-6.37c-1.36-2.6-2.52-5.31-3.37-8.12 c-1.77-5.85-2.28-12.1-1.77-18.19c1.04-12.47,6.33-24.62,14.48-34.09c7.71-8.97,18.05-15.37,29.92-16.72 c4.79-0.54,9.78-0.33,14.57,0.17c6,0.63,11.88,1.9,17.62,3.78c4.17,1.37,8.25,3.11,12.15,5.11 C265.26,230.67,268.41,232.46,271.21,234.64z"/> <path fill="#553D43" d="M203.42,223.45c-2.69-1.94-5.36-3.91-8.07-5.83c-2.14-1.51-4.29-3.02-6.51-4.41 c-1.13-0.71-2.28-1.4-3.48-1.99c-0.99-0.49-2.39-1.26-3.53-1.05c-0.02,0,0.06-0.12,0.05-0.09c-1.04,1.9-1.08,4.48-1.18,6.59 c-0.15,3.33-0.06,6.68,0.18,10.01c0.21,2.93,0.52,5.86,1.08,8.74c0.43,2.25,0.97,4.57,2.27,6.49c-1.65-1.51-2.62-3.53-3.4-5.6 c-1.06-2.83-1.74-5.78-2.23-8.75c-0.52-3.1-0.85-6.29-0.84-9.44c0.01-2.94,0.06-6.07,1.21-8.82c3.37-8.37,21.07,10.27,23.77,13.35 C202.97,222.92,203.2,223.18,203.42,223.45z"/> <path fill="#553D43" d="M260.59,341.97c-1.17-1.93-0.95-4.29-0.5-6.42c0.55-2.6,1.59-5.1,2.83-7.45c2.78-5.29,6.7-9.98,11.23-13.85 c2.31-1.97,4.8-3.74,7.42-5.27c2.52-1.47,4.93-2.88,7.07-4.89c4.31-4.07,7.36-9.34,9.54-14.82c1.4-3.53,2.46-7.18,3.13-10.92 c0.32-1.81,0.56-3.66,0.58-5.5c0.01-0.85-0.01-1.74-0.25-2.57c-0.17-0.72-1.2-0.94-1.81-1.25c-3.08-1.41-5.91-3.77-8.27-6.18 c-2.21-2.27-3.88-4.77-5.26-7.61c2.96,4.48,6.87,8.13,11.58,10.74c1.19,0.66,2.41,1.23,3.67,1.75c0.79,0.33,1.49,0.62,1.88,1.46 c1.16,2.5,0.77,5.9,0.48,8.55c-1.27,11.62-6.64,24.27-16.51,31.11c-1.61,1.11-3.36,1.94-5.05,2.91c-1.84,1.02-3.61,2.19-5.3,3.45 c-3.23,2.41-6.19,5.14-8.81,8.21c-2.5,2.92-4.71,6.13-6.32,9.63C260.71,335.66,259.33,339.18,260.59,341.97z"/> <g> <path fill="#553D43" d="M299.69,587.02c-2.21,0.42-4.3,0.43-6.42-0.44c-2.48-1.01-4.14-2.84-5.4-5.14 c-0.87-1.89-1.2-3.68-2.65-5.25c-1.89-2.05-4.38-3.42-6.93-4.48c-5.33-2.22-11.11-3.33-16.8-4.18c-6.03-0.9-12.1-1.44-18.18-1.83 c-25.18-1.65-50.45-1.82-75.59-4.08c-25.03-2.26-51.29-6.47-72.98-19.99c-8.24-5.14-16.05-12.21-19.27-21.64 c-1.75-5.13-2.07-10.6-0.94-15.9c0.99-4.7,3.08-9.11,5.73-13.1c0.54-0.81,1.1-1.6,1.68-2.38c0.09-0.12,0.17-0.23,0.26-0.35 c0.07-0.1,0.15-0.2,0.23-0.29c0.23,0.38,0.47,0.76,0.71,1.13c0.32,0.5,0.65,0.98,0.99,1.46c-0.14,0.17-0.27,0.35-0.39,0.53 c-0.37,0.51-0.72,1.03-1.06,1.55c-2.04,3.12-3.67,6.46-4.7,10.02c-1.42,4.89-1.53,10.17-0.11,15.08c0.94,3.23,2.56,6.18,4.48,8.92 c7.04,9.76,18.61,15.8,29.51,20.21c11.95,4.84,24.62,7.66,37.35,9.55c12.73,1.9,25.57,2.89,38.41,3.61 c24.72,1.38,49.76,1.08,74.18,5.67c4.18,0.78,8.34,1.73,12.37,3.09c3.85,1.3,7.85,2.97,10.8,5.85c1.53,1.49,2.4,3.15,3.02,5.17 c0.55,1.76,1.3,3.31,2.64,4.61C293.11,586.84,296.36,587.5,299.69,587.02z"/> </g> <path fill="#553D43" d="M259.78,337.4c3.45-3.23,7.23-6.17,11.1-8.88c4.96-3.48,10.1-6.78,15.58-9.39 c5.62-2.68,11.38-4.77,17.58-5.63c6.28-0.87,12.85-0.98,19.08,0.34c4.05,0.85,9.35,2.42,11.23,6.54c1.76,4.09-1.48,7.79-4.21,10.44 c1.37-1.82,2.79-3.73,3.31-5.98c0.71-3.03-1.02-5.28-3.63-6.59c-5.24-2.64-11.85-2.75-17.58-2.52c-6.38,0.26-12.78,1.25-18.78,3.49 c-5.71,2.13-11.22,4.82-16.53,7.79C271.09,330.26,265.36,333.72,259.78,337.4z"/> <path fill="#553D43" d="M326.61,328.55c2.09,0.11,3.93,0.98,4.82,2.99c1.05,2.34,0.59,5.14-0.48,7.39 c-1.09,2.14-2.79,4.23-5.2,4.92c-2.2,0.75-4.19-0.33-5.53-2.03c1.54,0.92,3.3,1.49,5.01,0.63c1.81-0.83,3.06-2.66,3.92-4.38 c0.89-1.84,1.48-4.12,0.88-6.15C329.53,330.19,328.16,329.27,326.61,328.55z"/> <path fill="#553D43" d="M318.13,340.51c2.3,0.7,3.9,2.42,4.04,4.91c0.24,2.75-1.48,5.28-3.6,6.86c-1.25,0.93-2.92,1.87-4.47,2.22 c-2.44,0.57-4.53,0.32-6.56-1.25c-0.83-0.64-1.69-1.6-2.84-1.35c-1.36,0.3-2.71,1.2-3.93,1.85c-2.76,1.48-5.49,3.02-8.2,4.59 c-5.33,3.08-10.69,6.17-15.85,9.54c-2.12,1.39-5,2.92-6.38,5.13c0.75-2.04,2.69-3.69,4.25-5.12c2.2-2,4.55-3.85,6.95-5.59 c5.08-3.68,10.38-7.05,15.85-10.11c1.29-0.72,2.61-1.4,3.94-2.04c1.2-0.57,2.48-1.22,3.84-1.18c2.9,0.07,4.14,3.42,7.03,3.34 c3.97-0.11,9.06-3.19,8.81-7.6C320.92,342.76,319.78,341.41,318.13,340.51z"/> <path fill="none" stroke="#1D1D1B" stroke-width="2" stroke-miterlimit="10" d="M104.64,509.44c-2.58,0-6.32-0.4-8.37-1.1"/> <path fill="#553D43" d="M81.46,491.86c-10.15-6.49-15.44-18.08-16.66-29.8c-1.08-10.39,0.84-21,6.19-30.02 c0.02-0.04,0.05-0.08,0.07-0.12c-0.73,1.88-1.49,3.74-2.1,5.67c-0.75,2.82-1.42,5.61-1.91,8.49c-0.85,5.02-0.88,10.34-0.32,15.39 c0.67,6.13,2.23,12.19,4.95,17.73C74.08,484.13,77.34,488.28,81.46,491.86z"/> </g> </svg>